G04*
G04 #@! TF.GenerationSoftware,Altium Limited,Altium Designer,22.1.2 (22)*
G04*
G04 Layer_Color=8388736*
%FSLAX44Y44*%
%MOMM*%
G71*
G04*
G04 #@! TF.SameCoordinates,1F279A6F-825B-41A2-8EC7-F4161A23EE25*
G04*
G04*
G04 #@! TF.FilePolarity,Negative*
G04*
G01*
G75*
%ADD34R,1.8000X3.4000*%
%ADD35R,0.7588X0.8858*%
%ADD36R,1.5000X0.9000*%
%ADD37R,0.9000X1.5000*%
%ADD38R,0.8858X0.7588*%
%ADD39R,1.4500X0.5000*%
%ADD40R,2.1000X2.1000*%
%ADD41R,1.6000X1.8000*%
%ADD42R,1.5000X1.1000*%
%ADD43R,0.7500X1.2000*%
%ADD44R,1.2000X0.7500*%
%ADD45R,2.7000X2.8000*%
%ADD46R,2.8000X2.7000*%
%ADD47R,1.1000X0.8000*%
%ADD48R,1.6200X0.6700*%
%ADD49R,0.6700X1.6200*%
%ADD50R,0.8000X2.4000*%
%ADD51R,3.7000X2.4000*%
%ADD52R,1.0000X1.0000*%
%ADD53R,1.1000X1.5000*%
%ADD54C,3.0480*%
%ADD55R,2.9000X2.2000*%
%ADD56C,4.2000*%
%ADD57C,2.1000*%
%ADD58R,2.1000X2.1000*%
%ADD59R,1.8000X2.2000*%
%ADD60O,1.8000X2.2000*%
%ADD61R,2.2000X1.8000*%
%ADD62O,2.2000X1.8000*%
%ADD63R,1.9000X1.9000*%
%ADD64C,1.9000*%
G04:AMPARAMS|DCode=65|XSize=2.2mm|YSize=1.4mm|CornerRadius=0.46mm|HoleSize=0mm|Usage=FLASHONLY|Rotation=180.000|XOffset=0mm|YOffset=0mm|HoleType=Round|Shape=RoundedRectangle|*
%AMROUNDEDRECTD65*
21,1,2.2000,0.4800,0,0,180.0*
21,1,1.2800,1.4000,0,0,180.0*
1,1,0.9200,-0.6400,0.2400*
1,1,0.9200,0.6400,0.2400*
1,1,0.9200,0.6400,-0.2400*
1,1,0.9200,-0.6400,-0.2400*
%
%ADD65ROUNDEDRECTD65*%
%ADD66C,7.6000*%
%ADD67C,3.4000*%
D34*
X71750Y15000D02*
D03*
Y56000D02*
D03*
X72000Y131000D02*
D03*
Y90000D02*
D03*
D35*
X614000Y249000D02*
D03*
X589616D02*
D03*
D36*
X172000Y365500D02*
D03*
Y384500D02*
D03*
X92000Y250500D02*
D03*
Y269500D02*
D03*
X217000Y267500D02*
D03*
Y286500D02*
D03*
X613000Y483000D02*
D03*
Y464000D02*
D03*
X590000D02*
D03*
Y483000D02*
D03*
X636000Y433500D02*
D03*
Y414500D02*
D03*
X663000Y212000D02*
D03*
Y193000D02*
D03*
X33000Y279500D02*
D03*
Y260500D02*
D03*
X654000Y247000D02*
D03*
Y228000D02*
D03*
X270000Y47000D02*
D03*
Y66000D02*
D03*
X239500Y199000D02*
D03*
Y180000D02*
D03*
X334000Y66000D02*
D03*
Y85000D02*
D03*
Y66000D02*
D03*
Y47000D02*
D03*
X632000Y228000D02*
D03*
Y247000D02*
D03*
D37*
X291750Y406000D02*
D03*
X272750D02*
D03*
X273500Y384250D02*
D03*
X292500D02*
D03*
X96500Y360000D02*
D03*
X77500D02*
D03*
X111500Y211500D02*
D03*
X92500D02*
D03*
X93000Y189750D02*
D03*
X112000D02*
D03*
X111500Y166500D02*
D03*
X92500D02*
D03*
X375500Y101000D02*
D03*
X356500D02*
D03*
X594000Y230000D02*
D03*
X613000D02*
D03*
X257500Y441250D02*
D03*
X238500D02*
D03*
X382500Y231000D02*
D03*
X401500D02*
D03*
X610870Y357124D02*
D03*
X591870D02*
D03*
X17500Y241000D02*
D03*
X36500D02*
D03*
X266500Y85000D02*
D03*
X285500D02*
D03*
X133500Y215000D02*
D03*
X152500D02*
D03*
D38*
X13000Y259808D02*
D03*
Y284192D02*
D03*
D39*
X34370Y188000D02*
D03*
X34370Y174750D02*
D03*
X34370Y181250D02*
D03*
Y194250D02*
D03*
Y200750D02*
D03*
D40*
X8620Y176000D02*
D03*
Y200000D02*
D03*
X247500Y78500D02*
D03*
D41*
X33120Y156000D02*
D03*
Y220000D02*
D03*
D42*
X21000Y431500D02*
D03*
Y450500D02*
D03*
X197000Y204500D02*
D03*
Y185500D02*
D03*
X436000Y59000D02*
D03*
Y78000D02*
D03*
X198500Y223500D02*
D03*
Y242500D02*
D03*
X216000Y304000D02*
D03*
Y323000D02*
D03*
X176250Y240000D02*
D03*
Y221000D02*
D03*
X636000Y471500D02*
D03*
Y452500D02*
D03*
X120000Y131500D02*
D03*
Y112500D02*
D03*
X211000Y129500D02*
D03*
Y110500D02*
D03*
X307000Y68500D02*
D03*
Y49500D02*
D03*
X357000Y67500D02*
D03*
Y48500D02*
D03*
X217000Y450750D02*
D03*
Y431750D02*
D03*
X218750Y202000D02*
D03*
Y183000D02*
D03*
X640000Y191000D02*
D03*
Y210000D02*
D03*
X234000Y111000D02*
D03*
Y130000D02*
D03*
X220750Y224000D02*
D03*
Y243000D02*
D03*
D43*
X664500Y174500D02*
D03*
X655000D02*
D03*
X645500D02*
D03*
X664500Y147500D02*
D03*
X645500D02*
D03*
X54000Y239000D02*
D03*
X63500D02*
D03*
X73000D02*
D03*
X54000Y266000D02*
D03*
X73000D02*
D03*
D44*
X206000Y163000D02*
D03*
Y153500D02*
D03*
Y144000D02*
D03*
X233000Y163000D02*
D03*
Y144000D02*
D03*
X171500Y448500D02*
D03*
Y439000D02*
D03*
Y429500D02*
D03*
X198500Y448500D02*
D03*
Y429500D02*
D03*
D45*
X448500Y286000D02*
D03*
X399500D02*
D03*
D46*
X249000Y273500D02*
D03*
Y322500D02*
D03*
D47*
X53000Y207500D02*
D03*
Y222500D02*
D03*
Y192000D02*
D03*
Y177000D02*
D03*
D48*
X196000Y272000D02*
D03*
Y280000D02*
D03*
Y288000D02*
D03*
Y296000D02*
D03*
Y304000D02*
D03*
Y312000D02*
D03*
Y320000D02*
D03*
Y328000D02*
D03*
X112000D02*
D03*
Y320000D02*
D03*
Y312000D02*
D03*
Y304000D02*
D03*
Y296000D02*
D03*
Y288000D02*
D03*
Y280000D02*
D03*
Y272000D02*
D03*
D49*
X182000Y342000D02*
D03*
X174000D02*
D03*
X166000D02*
D03*
X158000D02*
D03*
X150000D02*
D03*
X142000D02*
D03*
X134000D02*
D03*
X126000D02*
D03*
Y258000D02*
D03*
X134000D02*
D03*
X142000D02*
D03*
X150000D02*
D03*
X158000D02*
D03*
X166000D02*
D03*
X174000D02*
D03*
X182000D02*
D03*
D50*
X139600Y114000D02*
D03*
X152300D02*
D03*
X165000D02*
D03*
X177700D02*
D03*
X190400D02*
D03*
D51*
X165000Y176000D02*
D03*
D52*
X242000Y403000D02*
D03*
X258000D02*
D03*
X241000Y385000D02*
D03*
X257000D02*
D03*
X610616Y378206D02*
D03*
X594616D02*
D03*
X242000Y421000D02*
D03*
X258000D02*
D03*
D53*
X457000Y56000D02*
D03*
X476000D02*
D03*
X149000Y237250D02*
D03*
X130000D02*
D03*
X258500Y352000D02*
D03*
X239500D02*
D03*
X260000Y244000D02*
D03*
X241000D02*
D03*
X401500Y51000D02*
D03*
X382500D02*
D03*
X21500Y525000D02*
D03*
X40500D02*
D03*
X456500Y79000D02*
D03*
X475500D02*
D03*
X421000Y230000D02*
D03*
X440000D02*
D03*
X241500Y483000D02*
D03*
X260500D02*
D03*
X395000Y77000D02*
D03*
X414000D02*
D03*
X412000Y101000D02*
D03*
X393000D02*
D03*
X451000Y100000D02*
D03*
X432000D02*
D03*
X381250Y253750D02*
D03*
X400250D02*
D03*
X440500Y253000D02*
D03*
X421500D02*
D03*
X663500Y129000D02*
D03*
X644500D02*
D03*
X72500Y284000D02*
D03*
X53500D02*
D03*
X110500Y233000D02*
D03*
X91500D02*
D03*
X609956Y334010D02*
D03*
X590956D02*
D03*
D54*
X97000Y528000D02*
D03*
X669000Y512000D02*
D03*
X668500Y22750D02*
D03*
X222000Y44000D02*
D03*
D55*
X17000Y59000D02*
D03*
Y91000D02*
D03*
D56*
X14750Y127500D02*
D03*
X14000Y23000D02*
D03*
D57*
X609500Y263000D02*
D03*
Y308000D02*
D03*
X674500D02*
D03*
X247500Y13500D02*
D03*
X202500D02*
D03*
Y78500D02*
D03*
D58*
X674500Y263000D02*
D03*
D59*
X118300Y88000D02*
D03*
X416560Y508000D02*
D03*
X635000D02*
D03*
X279400Y25400D02*
D03*
X508000D02*
D03*
X609600Y203200D02*
D03*
D60*
X169100Y88000D02*
D03*
X143700D02*
D03*
X391160Y508000D02*
D03*
X365760D02*
D03*
X340360D02*
D03*
X314960D02*
D03*
X289560D02*
D03*
X264160D02*
D03*
X238760D02*
D03*
X213360D02*
D03*
X187960D02*
D03*
X609600D02*
D03*
X584200D02*
D03*
X558800D02*
D03*
X533400D02*
D03*
X508000D02*
D03*
X482600D02*
D03*
X457200D02*
D03*
X304800Y25400D02*
D03*
X330200D02*
D03*
X355600D02*
D03*
X381000D02*
D03*
X406400D02*
D03*
X431800D02*
D03*
X457200D02*
D03*
X533400D02*
D03*
X558800D02*
D03*
X584200D02*
D03*
X635000D02*
D03*
X609600D02*
D03*
X302800Y127000D02*
D03*
X328200D02*
D03*
X353600D02*
D03*
X379000D02*
D03*
X404400D02*
D03*
X429800D02*
D03*
X455200D02*
D03*
X480600D02*
D03*
X506000D02*
D03*
X531400D02*
D03*
X556800D02*
D03*
X582200D02*
D03*
X609600D02*
D03*
X277400Y203200D02*
D03*
X302800D02*
D03*
X328200D02*
D03*
X353600D02*
D03*
X379000D02*
D03*
X404400D02*
D03*
X429800D02*
D03*
X455200D02*
D03*
X480600D02*
D03*
X506000D02*
D03*
X531400D02*
D03*
X556800D02*
D03*
X582200D02*
D03*
X277400Y127000D02*
D03*
D61*
X146000Y446000D02*
D03*
X662000Y469000D02*
D03*
D62*
X146000Y369800D02*
D03*
Y395200D02*
D03*
Y420600D02*
D03*
X662000Y443600D02*
D03*
Y418200D02*
D03*
D63*
X50800Y342000D02*
D03*
X25400Y386080D02*
D03*
Y472440D02*
D03*
D64*
Y342000D02*
D03*
X50800Y316600D02*
D03*
X25400D02*
D03*
X50800Y386080D02*
D03*
X76200D02*
D03*
X25400Y411480D02*
D03*
X50800D02*
D03*
X76200D02*
D03*
X50800Y472440D02*
D03*
X76200D02*
D03*
X25400Y497840D02*
D03*
X50800D02*
D03*
X76200D02*
D03*
D65*
X8620Y155000D02*
D03*
Y221000D02*
D03*
D66*
X144780Y25400D02*
D03*
X660000Y78000D02*
D03*
X660400Y355600D02*
D03*
D67*
X152400Y508000D02*
D03*
M02*
