G04*
G04 #@! TF.GenerationSoftware,Altium Limited,Altium Designer,22.1.2 (22)*
G04*
G04 Layer_Color=16711935*
%FSLAX44Y44*%
%MOMM*%
G71*
G04*
G04 #@! TF.SameCoordinates,1F279A6F-825B-41A2-8EC7-F4161A23EE25*
G04*
G04*
G04 #@! TF.FilePolarity,Negative*
G04*
G01*
G75*
%ADD40R,2.1000X2.1000*%
%ADD56C,4.2000*%
%ADD57C,2.1000*%
%ADD58R,2.1000X2.1000*%
%ADD59R,1.8000X2.2000*%
%ADD60O,1.8000X2.2000*%
%ADD61R,2.2000X1.8000*%
%ADD62O,2.2000X1.8000*%
%ADD63R,1.9000X1.9000*%
%ADD64C,1.9000*%
G04:AMPARAMS|DCode=65|XSize=2.2mm|YSize=1.4mm|CornerRadius=0.46mm|HoleSize=0mm|Usage=FLASHONLY|Rotation=180.000|XOffset=0mm|YOffset=0mm|HoleType=Round|Shape=RoundedRectangle|*
%AMROUNDEDRECTD65*
21,1,2.2000,0.4800,0,0,180.0*
21,1,1.2800,1.4000,0,0,180.0*
1,1,0.9200,-0.6400,0.2400*
1,1,0.9200,0.6400,0.2400*
1,1,0.9200,0.6400,-0.2400*
1,1,0.9200,-0.6400,-0.2400*
%
%ADD65ROUNDEDRECTD65*%
%ADD66C,7.6000*%
%ADD67C,3.4000*%
D40*
X247500Y78500D02*
D03*
D56*
X14750Y127500D02*
D03*
X14000Y23000D02*
D03*
D57*
X609500Y263000D02*
D03*
Y308000D02*
D03*
X674500D02*
D03*
X247500Y13500D02*
D03*
X202500D02*
D03*
Y78500D02*
D03*
D58*
X674500Y263000D02*
D03*
D59*
X118300Y88000D02*
D03*
X416560Y508000D02*
D03*
X635000D02*
D03*
X279400Y25400D02*
D03*
X508000D02*
D03*
X609600Y203200D02*
D03*
D60*
X169100Y88000D02*
D03*
X143700D02*
D03*
X391160Y508000D02*
D03*
X365760D02*
D03*
X340360D02*
D03*
X314960D02*
D03*
X289560D02*
D03*
X264160D02*
D03*
X238760D02*
D03*
X213360D02*
D03*
X187960D02*
D03*
X609600D02*
D03*
X584200D02*
D03*
X558800D02*
D03*
X533400D02*
D03*
X508000D02*
D03*
X482600D02*
D03*
X457200D02*
D03*
X304800Y25400D02*
D03*
X330200D02*
D03*
X355600D02*
D03*
X381000D02*
D03*
X406400D02*
D03*
X431800D02*
D03*
X457200D02*
D03*
X533400D02*
D03*
X558800D02*
D03*
X584200D02*
D03*
X635000D02*
D03*
X609600D02*
D03*
X302800Y127000D02*
D03*
X328200D02*
D03*
X353600D02*
D03*
X379000D02*
D03*
X404400D02*
D03*
X429800D02*
D03*
X455200D02*
D03*
X480600D02*
D03*
X506000D02*
D03*
X531400D02*
D03*
X556800D02*
D03*
X582200D02*
D03*
X609600D02*
D03*
X277400Y203200D02*
D03*
X302800D02*
D03*
X328200D02*
D03*
X353600D02*
D03*
X379000D02*
D03*
X404400D02*
D03*
X429800D02*
D03*
X455200D02*
D03*
X480600D02*
D03*
X506000D02*
D03*
X531400D02*
D03*
X556800D02*
D03*
X582200D02*
D03*
X277400Y127000D02*
D03*
D61*
X146000Y446000D02*
D03*
X662000Y469000D02*
D03*
D62*
X146000Y369800D02*
D03*
Y395200D02*
D03*
Y420600D02*
D03*
X662000Y443600D02*
D03*
Y418200D02*
D03*
D63*
X50800Y342000D02*
D03*
X25400Y386080D02*
D03*
Y472440D02*
D03*
D64*
Y342000D02*
D03*
X50800Y316600D02*
D03*
X25400D02*
D03*
X50800Y386080D02*
D03*
X76200D02*
D03*
X25400Y411480D02*
D03*
X50800D02*
D03*
X76200D02*
D03*
X50800Y472440D02*
D03*
X76200D02*
D03*
X25400Y497840D02*
D03*
X50800D02*
D03*
X76200D02*
D03*
D65*
X8620Y155000D02*
D03*
Y221000D02*
D03*
D66*
X144780Y25400D02*
D03*
X660000Y78000D02*
D03*
X660400Y355600D02*
D03*
D67*
X152400Y508000D02*
D03*
M02*
