G04*
G04 #@! TF.GenerationSoftware,Altium Limited,Altium Designer,22.1.2 (22)*
G04*
G04 Layer_Physical_Order=2*
G04 Layer_Color=16711680*
%FSLAX44Y44*%
%MOMM*%
G71*
G04*
G04 #@! TF.SameCoordinates,1F279A6F-825B-41A2-8EC7-F4161A23EE25*
G04*
G04*
G04 #@! TF.FilePolarity,Positive*
G04*
G01*
G75*
%ADD10C,0.2000*%
%ADD12C,0.4000*%
%ADD19R,1.9000X1.9000*%
%ADD63R,1.9000X1.9000*%
%ADD64C,1.9000*%
%ADD68C,0.6000*%
%ADD71C,0.8000*%
%ADD72C,1.0000*%
%ADD73C,4.0000*%
%ADD74R,1.6000X2.0000*%
%ADD75O,1.6000X2.0000*%
%ADD76R,2.0000X1.6000*%
%ADD77O,2.0000X1.6000*%
%ADD78R,1.7000X1.7000*%
%ADD79C,1.7000*%
G04:AMPARAMS|DCode=80|XSize=2mm|YSize=1.2mm|CornerRadius=0.36mm|HoleSize=0mm|Usage=FLASHONLY|Rotation=180.000|XOffset=0mm|YOffset=0mm|HoleType=Round|Shape=RoundedRectangle|*
%AMROUNDEDRECTD80*
21,1,2.0000,0.4800,0,0,180.0*
21,1,1.2800,1.2000,0,0,180.0*
1,1,0.7200,-0.6400,0.2400*
1,1,0.7200,0.6400,0.2400*
1,1,0.7200,0.6400,-0.2400*
1,1,0.7200,-0.6400,-0.2400*
%
%ADD80ROUNDEDRECTD80*%
%ADD81C,7.4000*%
%ADD82C,3.2000*%
%ADD83C,0.6000*%
G36*
X55000Y509663D02*
X53992Y508890D01*
X52314Y509340D01*
X49286D01*
X46361Y508556D01*
X43739Y507042D01*
X41598Y504901D01*
X40084Y502279D01*
X39300Y499354D01*
Y496326D01*
X40084Y493401D01*
X41598Y490779D01*
X43739Y488638D01*
X46361Y487124D01*
X49286Y486340D01*
X52314D01*
X53992Y486790D01*
X55000Y486017D01*
Y484263D01*
X53992Y483490D01*
X52314Y483940D01*
X49286D01*
X46361Y483156D01*
X43739Y481642D01*
X41598Y479501D01*
X40084Y476879D01*
X39300Y473954D01*
Y470926D01*
X40084Y468001D01*
X41598Y465379D01*
X43739Y463238D01*
X46361Y461724D01*
X49286Y460940D01*
X52314D01*
X53992Y461390D01*
X55000Y460617D01*
Y423303D01*
X53992Y422530D01*
X52314Y422980D01*
X49286D01*
X46361Y422196D01*
X43739Y420682D01*
X41598Y418541D01*
X40084Y415919D01*
X39300Y412994D01*
Y409966D01*
X40084Y407041D01*
X41598Y404419D01*
X43739Y402278D01*
X46361Y400764D01*
X49286Y399980D01*
X52314D01*
X53992Y400430D01*
X55000Y399657D01*
Y397903D01*
X53992Y397130D01*
X52314Y397580D01*
X49286D01*
X46361Y396796D01*
X43739Y395282D01*
X41598Y393141D01*
X40084Y390519D01*
X39300Y387594D01*
Y384566D01*
X40084Y381641D01*
X41598Y379019D01*
X43739Y376878D01*
X46361Y375364D01*
X49286Y374580D01*
X52314D01*
X53992Y375030D01*
X55000Y374257D01*
Y353500D01*
X39300D01*
Y330500D01*
X55000D01*
Y328424D01*
X53992Y327650D01*
X52314Y328100D01*
X49286D01*
X46361Y327316D01*
X43739Y325802D01*
X41598Y323661D01*
X40084Y321039D01*
X39300Y318114D01*
Y315086D01*
X40084Y312161D01*
X41598Y309539D01*
X43739Y307398D01*
X46361Y305884D01*
X49286Y305100D01*
X52314D01*
X53992Y305550D01*
X55000Y304777D01*
Y286000D01*
X60000Y281000D01*
Y246000D01*
X48000D01*
X35000Y233000D01*
Y140780D01*
X33785Y140411D01*
X32615Y142162D01*
X29412Y145365D01*
X25645Y147882D01*
X22179Y149318D01*
X21414Y150789D01*
X21450Y150877D01*
X21677Y152600D01*
Y157400D01*
X21450Y159123D01*
X20785Y160728D01*
X19727Y162107D01*
X18348Y163165D01*
X16743Y163830D01*
X15020Y164057D01*
X4500D01*
Y211943D01*
X15020D01*
X16743Y212170D01*
X18348Y212835D01*
X19727Y213893D01*
X20785Y215272D01*
X21450Y216877D01*
X21677Y218600D01*
Y223400D01*
X21450Y225123D01*
X20785Y226728D01*
X19727Y228107D01*
X18348Y229165D01*
X16743Y229830D01*
X15020Y230057D01*
X4500D01*
Y520500D01*
X3000Y522000D01*
X2000D01*
Y527000D01*
X0Y529000D01*
X2000Y531000D01*
X55000D01*
Y509663D01*
D02*
G37*
G36*
X684000Y479659D02*
X682827Y479173D01*
X682000Y480000D01*
X568394D01*
X568000Y480078D01*
X568000Y480078D01*
X385922D01*
X375000Y491000D01*
X369000Y485000D01*
X298344D01*
X297850Y486270D01*
X308597Y497017D01*
X309412Y496391D01*
X312088Y495283D01*
X314960Y494905D01*
X317832Y495283D01*
X320508Y496391D01*
X322805Y498155D01*
X324568Y500452D01*
X325677Y503128D01*
X326055Y506000D01*
Y510000D01*
X325677Y512872D01*
X324568Y515547D01*
X322805Y517845D01*
X320508Y519608D01*
X317832Y520717D01*
X314960Y521095D01*
X312088Y520717D01*
X309412Y519608D01*
X307115Y517845D01*
X305352Y515547D01*
X304243Y512872D01*
X303865Y510000D01*
Y506000D01*
X304119Y504075D01*
X300576Y500532D01*
X299499Y501251D01*
X300277Y503128D01*
X300655Y506000D01*
Y510000D01*
X300277Y512872D01*
X299168Y515547D01*
X297405Y517845D01*
X295107Y519608D01*
X292432Y520717D01*
X289560Y521095D01*
X286688Y520717D01*
X284013Y519608D01*
X281715Y517845D01*
X279951Y515547D01*
X278843Y512872D01*
X278465Y510000D01*
Y506000D01*
X278843Y503128D01*
X279951Y500452D01*
X281715Y498155D01*
X284013Y496391D01*
X286688Y495283D01*
X289560Y494905D01*
X292432Y495283D01*
X294309Y496061D01*
X295028Y494984D01*
X292544Y492500D01*
X290306D01*
X288101Y491586D01*
X286413Y489899D01*
X285500Y487693D01*
Y485307D01*
X285295Y485000D01*
X270490D01*
X255578Y499911D01*
Y519743D01*
X255268Y521303D01*
X254384Y522626D01*
X254384Y522626D01*
X252000Y525010D01*
Y530000D01*
X254000Y532000D01*
X684000D01*
Y479659D01*
D02*
G37*
G36*
X62000Y524000D02*
X115000D01*
Y485000D01*
X117000Y483000D01*
Y476518D01*
X87013D01*
X86916Y476879D01*
X85402Y479501D01*
X83261Y481642D01*
X80639Y483156D01*
X77714Y483940D01*
X74686D01*
X71761Y483156D01*
X69139Y481642D01*
X66998Y479501D01*
X65484Y476879D01*
X64700Y473954D01*
Y470926D01*
X65484Y468001D01*
X66998Y465379D01*
X69139Y463238D01*
X71761Y461724D01*
X74686Y460940D01*
X77714D01*
X80639Y461724D01*
X83261Y463238D01*
X85402Y465379D01*
X86916Y468001D01*
X87013Y468362D01*
X115871D01*
X133000Y451232D01*
Y435000D01*
X159000D01*
Y444922D01*
X163133D01*
X172626Y439000D01*
X175000D01*
X180922Y444922D01*
X215000D01*
Y440706D01*
X212959Y437959D01*
X198106Y423106D01*
X199921Y421973D01*
X200157Y420725D01*
X194462Y413059D01*
X188754D01*
X187584Y412826D01*
X186335Y412309D01*
X185165D01*
X183916Y412826D01*
X182746Y413059D01*
X167267D01*
X163163Y417163D01*
X162171Y417826D01*
X161000Y418059D01*
X160016Y417863D01*
X159320Y418275D01*
X158844Y418695D01*
X159095Y420600D01*
X158717Y423472D01*
X157608Y426147D01*
X155845Y428445D01*
X153547Y430209D01*
X150872Y431317D01*
X148000Y431695D01*
X144000D01*
X141128Y431317D01*
X138453Y430209D01*
X136155Y428445D01*
X134391Y426147D01*
X133283Y423472D01*
X132905Y420600D01*
X133283Y417728D01*
X134391Y415053D01*
X136155Y412755D01*
X138453Y410992D01*
X138489Y410976D01*
X139174Y409976D01*
X139077Y409487D01*
X138948Y409005D01*
X138961Y408905D01*
X138941Y408805D01*
Y406995D01*
X138961Y406895D01*
X138948Y406795D01*
X139077Y406313D01*
X139174Y405824D01*
X138489Y404824D01*
X138453Y404809D01*
X136155Y403045D01*
X134391Y400747D01*
X133283Y398072D01*
X132905Y395200D01*
X133283Y392328D01*
X134391Y389653D01*
X136155Y387355D01*
X138453Y385592D01*
X138489Y385576D01*
X139174Y384576D01*
X139077Y384087D01*
X138948Y383605D01*
X138961Y383505D01*
X138941Y383405D01*
Y381595D01*
X138961Y381495D01*
X138948Y381395D01*
X139077Y380913D01*
X139174Y380424D01*
X138489Y379424D01*
X138453Y379408D01*
X136155Y377645D01*
X134391Y375347D01*
X133283Y372672D01*
X132905Y369800D01*
X133283Y366928D01*
X134391Y364253D01*
X136155Y361955D01*
X138453Y360191D01*
X141128Y359083D01*
X144000Y358705D01*
X148000D01*
X150872Y359083D01*
X153547Y360191D01*
X153673Y360287D01*
X155153Y359837D01*
X155237Y359781D01*
X155299Y359700D01*
X155731Y359451D01*
X156145Y359174D01*
X156245Y359154D01*
X156333Y359104D01*
X156827Y359039D01*
X157316Y358941D01*
X299000D01*
X299000Y358941D01*
X300170Y359174D01*
X300374Y359310D01*
X307724Y354724D01*
X330000Y377000D01*
Y416232D01*
X332768Y419000D01*
X351000D01*
X351922Y419922D01*
X384311D01*
X390616Y413616D01*
X391939Y412732D01*
X393500Y412422D01*
X393500Y412422D01*
X553578D01*
X569681Y396319D01*
Y370476D01*
X534044Y334840D01*
X532762Y333168D01*
X531956Y331222D01*
X531681Y329134D01*
Y247250D01*
Y243250D01*
X531956Y241162D01*
X532762Y239216D01*
X534044Y237544D01*
X548813Y222776D01*
X549729Y222073D01*
X554642Y217160D01*
X554234Y215957D01*
X553928Y215917D01*
X551253Y214809D01*
X548955Y213045D01*
X547192Y210748D01*
X546083Y208072D01*
X545705Y205200D01*
Y201200D01*
X546083Y198328D01*
X547192Y195653D01*
X548955Y193355D01*
X551253Y191591D01*
X553928Y190483D01*
X556800Y190105D01*
X559672Y190483D01*
X562347Y191591D01*
X564645Y193355D01*
X564736Y193473D01*
X566172Y193258D01*
D01*
X566595Y192625D01*
X575652Y183568D01*
Y168500D01*
X576040Y166549D01*
X577145Y164895D01*
X578799Y163790D01*
X580750Y163402D01*
X582701Y163790D01*
X583792Y164519D01*
X587553D01*
X588806Y164000D01*
X591194D01*
X591866Y164278D01*
X592922Y163573D01*
Y145489D01*
X586541Y139108D01*
D01*
X585072Y139717D01*
X582200Y140095D01*
X579328Y139717D01*
X576652Y138609D01*
X574355Y136845D01*
X572592Y134548D01*
X571483Y131872D01*
X571105Y129000D01*
Y125000D01*
X571483Y122128D01*
X572592Y119452D01*
X574355Y117155D01*
X576652Y115392D01*
X579328Y114283D01*
X582200Y113905D01*
X583914Y114131D01*
D01*
X585072Y114283D01*
X587747Y115392D01*
X590045Y117155D01*
X591809Y119452D01*
X592917Y122128D01*
X593295Y125000D01*
Y129000D01*
X592917Y131872D01*
X592308Y133341D01*
X599884Y140916D01*
X599884Y140916D01*
X600768Y142239D01*
X601078Y143800D01*
X601078Y143800D01*
Y170418D01*
Y190200D01*
X620600D01*
Y211473D01*
X621773Y211959D01*
X640000Y193732D01*
Y167000D01*
X640916Y166084D01*
X628366Y153533D01*
D01*
X613941Y139108D01*
X612472Y139717D01*
X609600Y140095D01*
X606728Y139717D01*
X604053Y138609D01*
X601755Y136845D01*
X599991Y134548D01*
X598883Y131872D01*
X598505Y129000D01*
Y125000D01*
X598883Y122128D01*
X599991Y119452D01*
X601755Y117155D01*
X604053Y115392D01*
X604998Y115000D01*
X606728Y114283D01*
X609600Y113905D01*
X612472Y114283D01*
X615148Y115392D01*
X617445Y117155D01*
X619208Y119452D01*
X620317Y122128D01*
X620695Y125000D01*
Y129000D01*
X620317Y131872D01*
X619708Y133341D01*
X636191Y149824D01*
X655672Y137672D01*
X683000Y165000D01*
X686000Y162000D01*
Y4000D01*
X627000D01*
X626000Y5000D01*
X629000Y8000D01*
Y12604D01*
X630270Y13453D01*
X632128Y12683D01*
X635000Y12305D01*
X637872Y12683D01*
X640547Y13792D01*
X642845Y15555D01*
X644609Y17852D01*
X645717Y20528D01*
X646095Y23400D01*
Y27400D01*
X645717Y30272D01*
X644609Y32947D01*
X642845Y35245D01*
X640547Y37009D01*
X637872Y38117D01*
X635000Y38495D01*
X632128Y38117D01*
X630270Y37347D01*
X629000Y38196D01*
Y53000D01*
X622059Y59941D01*
Y86000D01*
X621826Y87170D01*
X621163Y88163D01*
X620171Y88826D01*
X619000Y89059D01*
X614000D01*
Y90000D01*
X505000D01*
X479000Y64000D01*
Y62059D01*
X423252D01*
X422956Y62000D01*
X422000D01*
X419000Y65000D01*
X414311Y60311D01*
X414250Y60324D01*
X413079Y60091D01*
X412087Y59428D01*
X411166Y58506D01*
X410085Y58059D01*
X408541D01*
X408090Y58149D01*
X407329Y57997D01*
X406163Y59163D01*
X405171Y59826D01*
X404000Y60059D01*
X404000Y60059D01*
X366267D01*
X358000Y68326D01*
Y72000D01*
X352000Y78000D01*
X348326D01*
X348163Y78163D01*
X347170Y78826D01*
X346000Y79059D01*
X346000Y79059D01*
X286267D01*
X257163Y108163D01*
X256171Y108826D01*
X255000Y109059D01*
X255000Y109059D01*
X254941D01*
X249059Y114941D01*
Y115000D01*
X249059Y115000D01*
X248826Y116171D01*
X248163Y117163D01*
X229163Y136163D01*
X228171Y136826D01*
X227000Y137059D01*
X227000Y137059D01*
X214985D01*
X213815Y136826D01*
X212822Y136163D01*
X212822Y136163D01*
X212666Y136006D01*
X211585Y135559D01*
X210415D01*
X209334Y136006D01*
X209178Y136163D01*
X208185Y136826D01*
X207015Y137059D01*
X207015Y137059D01*
X173000D01*
X171829Y136826D01*
X170837Y136163D01*
X168308Y133634D01*
X167645Y132641D01*
X167412Y131471D01*
X167583Y130613D01*
X167645Y130300D01*
X167941Y129585D01*
Y128415D01*
X167606Y127606D01*
X163059Y123059D01*
X158000D01*
X156830Y122826D01*
X155837Y122163D01*
X155174Y121171D01*
X154941Y120000D01*
Y118000D01*
X106000D01*
X98000Y126000D01*
Y163000D01*
X90059D01*
X89826Y164170D01*
X89163Y165163D01*
X88170Y165826D01*
X87000Y166059D01*
X71267D01*
X57000Y180326D01*
Y180704D01*
X57059Y181000D01*
X57059Y181000D01*
Y220000D01*
X57000Y220296D01*
Y229000D01*
X70000Y242000D01*
Y323000D01*
X62300Y330700D01*
Y353500D01*
X59000D01*
Y378017D01*
X60002Y379019D01*
X61516Y381641D01*
X62300Y384566D01*
Y387594D01*
X61516Y390519D01*
X60002Y393141D01*
X59000Y394143D01*
Y403417D01*
X60002Y404419D01*
X61516Y407041D01*
X62300Y409966D01*
Y412994D01*
X61516Y415919D01*
X60002Y418541D01*
X59000Y419543D01*
Y464377D01*
X60002Y465379D01*
X61516Y468001D01*
X62300Y470926D01*
Y473954D01*
X61516Y476879D01*
X60002Y479501D01*
X59000Y480503D01*
Y489777D01*
X60002Y490779D01*
X61516Y493401D01*
X62300Y496326D01*
Y499354D01*
X61516Y502279D01*
X60002Y504901D01*
X59000Y505903D01*
Y508000D01*
X59000D01*
X57957Y509043D01*
X58033Y509264D01*
X58019Y509465D01*
X58059Y509663D01*
Y526282D01*
X59232Y526768D01*
X62000Y524000D01*
D02*
G37*
G36*
X266000Y444000D02*
Y418000D01*
X252078Y404078D01*
X220857D01*
X220857Y404078D01*
X219296Y403768D01*
X217973Y402884D01*
X216089Y401000D01*
X214056D01*
X212369Y400301D01*
X211851Y400087D01*
X211000Y400000D01*
X211382Y399618D01*
X210163Y398399D01*
X209250Y396194D01*
Y393806D01*
X210163Y391601D01*
X211851Y389913D01*
X214056Y389000D01*
X216444D01*
X218649Y389913D01*
X219735Y391000D01*
X266000D01*
X270922Y395922D01*
X308000D01*
X308000Y395922D01*
X309561Y396232D01*
X310884Y397116D01*
X317384Y403616D01*
X320000Y401000D01*
Y383000D01*
X299000Y362000D01*
X157316D01*
X156754Y363139D01*
X157608Y364253D01*
X158717Y366928D01*
X159095Y369800D01*
X158717Y372672D01*
X157608Y375347D01*
X155845Y377645D01*
X153547Y379408D01*
X150872Y380517D01*
X148000Y380895D01*
X144000D01*
X142955Y380757D01*
X142000Y381595D01*
Y383405D01*
X142955Y384243D01*
X144000Y384105D01*
X148000D01*
X150872Y384483D01*
X153547Y385592D01*
X155845Y387355D01*
X157608Y389653D01*
X158717Y392328D01*
X159095Y395200D01*
X158717Y398072D01*
X157608Y400747D01*
X155845Y403045D01*
X153547Y404809D01*
X150872Y405917D01*
X148000Y406295D01*
X144000D01*
X142955Y406157D01*
X142000Y406995D01*
Y408805D01*
X142955Y409643D01*
X144000Y409505D01*
X148000D01*
X150872Y409883D01*
X153547Y410992D01*
X153559Y411000D01*
X157000D01*
X161000Y415000D01*
X166000Y410000D01*
X182746D01*
X184557Y409250D01*
X186943D01*
X188754Y410000D01*
X196000D01*
X221942Y444922D01*
X265078D01*
X266000Y444000D01*
D02*
G37*
G36*
X246000Y115000D02*
Y106000D01*
X255000D01*
X285000Y76000D01*
X346000D01*
X365000Y57000D01*
X404000D01*
X407000Y54000D01*
X408090Y55090D01*
X408307Y55000D01*
X410694D01*
X412899Y55914D01*
X414250Y57265D01*
X414601Y56913D01*
X416806Y56000D01*
X419193D01*
X421399Y56913D01*
X423087Y58601D01*
X423252Y59000D01*
X481000D01*
X491000Y69000D01*
X495000D01*
X512000Y86000D01*
X619000D01*
Y54000D01*
X624000Y49000D01*
Y28121D01*
X623905Y27400D01*
Y23400D01*
X624000Y22679D01*
Y8000D01*
X398000D01*
X396000Y6000D01*
X395059Y6941D01*
Y18717D01*
X396329Y18970D01*
X396791Y17852D01*
X398555Y15555D01*
X400853Y13792D01*
X403528Y12683D01*
X406400Y12305D01*
X409272Y12683D01*
X411948Y13792D01*
X414245Y15555D01*
X416008Y17852D01*
X417117Y20528D01*
X417495Y23400D01*
Y27400D01*
X417117Y30272D01*
X416008Y32947D01*
X414245Y35245D01*
X411948Y37009D01*
X409272Y38117D01*
X406400Y38495D01*
X403528Y38117D01*
X400853Y37009D01*
X398555Y35245D01*
X396791Y32947D01*
X396329Y31830D01*
X395059Y32083D01*
Y38000D01*
X395000Y38296D01*
Y39000D01*
X399000Y43000D01*
X393000D01*
X364982Y45344D01*
X359163Y51163D01*
X358171Y51826D01*
X357000Y52059D01*
X357000Y52059D01*
X284713D01*
X284226Y52099D01*
X278993Y57333D01*
X278826Y58170D01*
X278163Y59163D01*
X277171Y59826D01*
X276000Y60059D01*
X236267D01*
X226059Y70267D01*
Y122000D01*
X226059Y122000D01*
X225826Y123170D01*
X225163Y124163D01*
X224163Y125163D01*
X223171Y125826D01*
X222000Y126059D01*
X220830Y125826D01*
X219837Y125163D01*
X217733Y123059D01*
X169340D01*
X168814Y124329D01*
X170087Y125601D01*
X171000Y127807D01*
Y130194D01*
X170471Y131471D01*
X173000Y134000D01*
X207015D01*
X207601Y133413D01*
X209806Y132500D01*
X212194D01*
X214399Y133413D01*
X214985Y134000D01*
X227000D01*
X246000Y115000D01*
D02*
G37*
G36*
X58000Y112000D02*
X58000D01*
Y111000D01*
X72000Y97000D01*
Y91000D01*
X96000D01*
X97000Y92000D01*
Y111000D01*
X154941D01*
Y70059D01*
X140267D01*
X129300Y81026D01*
Y101000D01*
X126295D01*
X126000Y101059D01*
X110000D01*
X109705Y101000D01*
X107300D01*
Y99359D01*
X107174Y99171D01*
X106941Y98000D01*
Y79267D01*
X100733Y73059D01*
X33682D01*
X4500Y75500D01*
Y105708D01*
X5556Y106413D01*
X8041Y105384D01*
X12485Y104500D01*
X17015D01*
X21459Y105384D01*
X25645Y107118D01*
X29412Y109635D01*
X32615Y112838D01*
X35132Y116605D01*
X36866Y120791D01*
X37750Y125235D01*
Y129765D01*
X37560Y130722D01*
X38680Y131320D01*
X58000Y112000D01*
D02*
G37*
G36*
X54000Y181000D02*
X53000Y180000D01*
X70000Y163000D01*
X87000D01*
Y122000D01*
X94000Y115000D01*
X93000Y114000D01*
Y99000D01*
X79000D01*
X40000Y138000D01*
Y219586D01*
X41000Y220000D01*
X54000D01*
Y181000D01*
D02*
G37*
G36*
X223000Y122000D02*
Y69000D01*
X235000Y57000D01*
X276000D01*
Y56000D01*
X283000Y49000D01*
X357000D01*
X367000Y39000D01*
Y38296D01*
X366941Y38000D01*
Y20000D01*
X366941Y20000D01*
X367000Y19704D01*
Y16059D01*
X359237D01*
X358066Y15826D01*
X357673Y15663D01*
X355600Y15390D01*
X353527Y15663D01*
X353134Y15826D01*
X352196Y16013D01*
X351963Y16059D01*
X345941D01*
X342000Y20000D01*
Y37000D01*
X335759D01*
X335747Y37009D01*
X333072Y38117D01*
X330200Y38495D01*
X327328Y38117D01*
X324652Y37009D01*
X324641Y37000D01*
X310359D01*
X310347Y37009D01*
X307672Y38117D01*
X304800Y38495D01*
X301928Y38117D01*
X299252Y37009D01*
X299242Y37000D01*
X290400D01*
Y38400D01*
X269600D01*
X269000Y39000D01*
X266000Y36000D01*
Y28059D01*
X255035D01*
X254837Y28019D01*
X254636Y28033D01*
X254540Y28000D01*
X240460D01*
X240364Y28033D01*
X240163Y28019D01*
X239965Y28059D01*
X223267D01*
X185000Y66326D01*
Y69000D01*
X182326D01*
X182163Y69163D01*
X181171Y69826D01*
X180000Y70059D01*
X180000Y70059D01*
X158000D01*
Y120000D01*
X219000D01*
X222000Y123000D01*
X223000Y122000D01*
D02*
G37*
G36*
X392000Y2000D02*
X255035D01*
X254706Y3227D01*
X255175Y3498D01*
X257502Y5825D01*
X259148Y8675D01*
X260000Y11854D01*
Y15146D01*
X259148Y18325D01*
X257502Y21175D01*
X255175Y23503D01*
X254706Y23773D01*
X255035Y25000D01*
X268400D01*
Y12400D01*
X269600D01*
X270000Y12000D01*
X270400Y12400D01*
X290400D01*
Y13000D01*
X301163D01*
X301928Y12683D01*
X304800Y12305D01*
X307672Y12683D01*
X308437Y13000D01*
X326563D01*
X327328Y12683D01*
X330200Y12305D01*
X333072Y12683D01*
X333837Y13000D01*
X351963D01*
X352728Y12683D01*
X355600Y12305D01*
X358472Y12683D01*
X359237Y13000D01*
X371000D01*
Y19000D01*
X370000Y20000D01*
Y38000D01*
X392000D01*
Y2000D01*
D02*
G37*
G36*
X126000Y80000D02*
X139000Y67000D01*
X180000D01*
X222000Y25000D01*
X239965D01*
X240294Y23773D01*
X239825Y23503D01*
X237498Y21175D01*
X235852Y18325D01*
X235000Y15146D01*
Y11854D01*
X235852Y8675D01*
X237498Y5825D01*
X239825Y3498D01*
X240294Y3227D01*
X239965Y2000D01*
X210035D01*
X209706Y3227D01*
X210175Y3498D01*
X212502Y5825D01*
X214148Y8675D01*
X215000Y11854D01*
Y15146D01*
X214148Y18325D01*
X212502Y21175D01*
X210175Y23503D01*
X207325Y25148D01*
X204146Y26000D01*
X200854D01*
X197675Y25148D01*
X194825Y23503D01*
X192498Y21175D01*
X190852Y18325D01*
X190000Y15146D01*
Y11854D01*
X190852Y8675D01*
X192498Y5825D01*
X194825Y3498D01*
X195294Y3227D01*
X194965Y2000D01*
X178620D01*
X178044Y3132D01*
X178991Y4435D01*
X181849Y10045D01*
X183795Y16033D01*
X184780Y22252D01*
Y28548D01*
X183795Y34767D01*
X181849Y40755D01*
X178991Y46365D01*
X175290Y51458D01*
X170838Y55910D01*
X165745Y59611D01*
X160135Y62470D01*
X154147Y64415D01*
X147928Y65400D01*
X141632D01*
X135413Y64415D01*
X129425Y62470D01*
X123815Y59611D01*
X118722Y55910D01*
X114270Y51458D01*
X110569Y46365D01*
X107711Y40755D01*
X105765Y34767D01*
X104780Y28548D01*
Y22252D01*
X105765Y16033D01*
X107711Y10045D01*
X110569Y4435D01*
X111516Y3132D01*
X110940Y2000D01*
X2000D01*
Y70000D01*
X102000D01*
X110000Y78000D01*
Y98000D01*
X126000D01*
Y80000D01*
D02*
G37*
%LPC*%
G36*
X36900Y483940D02*
X13900D01*
Y460940D01*
X36900D01*
Y483940D01*
D02*
G37*
G36*
Y397580D02*
X13900D01*
Y374580D01*
X36900D01*
Y397580D01*
D02*
G37*
G36*
X26914Y353500D02*
X23886D01*
X20961Y352716D01*
X18339Y351202D01*
X16198Y349061D01*
X14684Y346439D01*
X13900Y343514D01*
Y340486D01*
X14684Y337561D01*
X16198Y334939D01*
X18339Y332798D01*
X20961Y331284D01*
X23886Y330500D01*
X26914D01*
X29839Y331284D01*
X32461Y332798D01*
X34602Y334939D01*
X36116Y337561D01*
X36900Y340486D01*
Y343514D01*
X36116Y346439D01*
X34602Y349061D01*
X32461Y351202D01*
X29839Y352716D01*
X26914Y353500D01*
D02*
G37*
G36*
Y328100D02*
X23886D01*
X20961Y327316D01*
X18339Y325802D01*
X16198Y323661D01*
X14684Y321039D01*
X13900Y318114D01*
Y315086D01*
X14684Y312161D01*
X16198Y309539D01*
X18339Y307398D01*
X20961Y305884D01*
X23886Y305100D01*
X26914D01*
X29839Y305884D01*
X32461Y307398D01*
X34602Y309539D01*
X36116Y312161D01*
X36900Y315086D01*
Y318114D01*
X36116Y321039D01*
X34602Y323661D01*
X32461Y325802D01*
X29839Y327316D01*
X26914Y328100D01*
D02*
G37*
G36*
X646000Y521000D02*
X624000D01*
Y495000D01*
X646000D01*
Y521000D01*
D02*
G37*
G36*
X427560D02*
X405560D01*
Y495000D01*
X427560D01*
Y521000D01*
D02*
G37*
G36*
X609600Y521095D02*
X606728Y520717D01*
X604053Y519608D01*
X601755Y517845D01*
X599991Y515547D01*
X598883Y512872D01*
X598505Y510000D01*
Y506000D01*
X598883Y503128D01*
X599991Y500452D01*
X601755Y498155D01*
X604053Y496391D01*
X606728Y495283D01*
X609600Y494905D01*
X612472Y495283D01*
X615148Y496391D01*
X617445Y498155D01*
X619208Y500452D01*
X620317Y503128D01*
X620695Y506000D01*
Y510000D01*
X620317Y512872D01*
X619208Y515547D01*
X617445Y517845D01*
X615148Y519608D01*
X612472Y520717D01*
X609600Y521095D01*
D02*
G37*
G36*
X584200D02*
X581328Y520717D01*
X578652Y519608D01*
X576355Y517845D01*
X574591Y515547D01*
X573483Y512872D01*
X573105Y510000D01*
Y506000D01*
X573483Y503128D01*
X574591Y500452D01*
X576355Y498155D01*
X578652Y496391D01*
X581328Y495283D01*
X584200Y494905D01*
X587072Y495283D01*
X589748Y496391D01*
X592045Y498155D01*
X593809Y500452D01*
X594917Y503128D01*
X595295Y506000D01*
Y510000D01*
X594917Y512872D01*
X593809Y515547D01*
X592045Y517845D01*
X589748Y519608D01*
X587072Y520717D01*
X584200Y521095D01*
D02*
G37*
G36*
X558800D02*
X555928Y520717D01*
X553252Y519608D01*
X550955Y517845D01*
X549192Y515547D01*
X548083Y512872D01*
X547705Y510000D01*
Y506000D01*
X548083Y503128D01*
X549192Y500452D01*
X550955Y498155D01*
X553252Y496391D01*
X555928Y495283D01*
X558800Y494905D01*
X561672Y495283D01*
X564347Y496391D01*
X566645Y498155D01*
X568409Y500452D01*
X569517Y503128D01*
X569895Y506000D01*
Y510000D01*
X569517Y512872D01*
X568409Y515547D01*
X566645Y517845D01*
X564347Y519608D01*
X561672Y520717D01*
X558800Y521095D01*
D02*
G37*
G36*
X533400D02*
X530528Y520717D01*
X527853Y519608D01*
X525555Y517845D01*
X523792Y515547D01*
X522683Y512872D01*
X522305Y510000D01*
Y506000D01*
X522683Y503128D01*
X523792Y500452D01*
X525555Y498155D01*
X527853Y496391D01*
X530528Y495283D01*
X533400Y494905D01*
X536272Y495283D01*
X538947Y496391D01*
X541245Y498155D01*
X543008Y500452D01*
X544117Y503128D01*
X544495Y506000D01*
Y510000D01*
X544117Y512872D01*
X543008Y515547D01*
X541245Y517845D01*
X538947Y519608D01*
X536272Y520717D01*
X533400Y521095D01*
D02*
G37*
G36*
X508000D02*
X505128Y520717D01*
X502453Y519608D01*
X500155Y517845D01*
X498391Y515547D01*
X497283Y512872D01*
X496905Y510000D01*
Y506000D01*
X497283Y503128D01*
X498391Y500452D01*
X500155Y498155D01*
X502453Y496391D01*
X505128Y495283D01*
X508000Y494905D01*
X510872Y495283D01*
X513548Y496391D01*
X515845Y498155D01*
X517608Y500452D01*
X518717Y503128D01*
X519095Y506000D01*
Y510000D01*
X518717Y512872D01*
X517608Y515547D01*
X515845Y517845D01*
X513548Y519608D01*
X510872Y520717D01*
X508000Y521095D01*
D02*
G37*
G36*
X482600D02*
X479728Y520717D01*
X477052Y519608D01*
X474755Y517845D01*
X472991Y515547D01*
X471883Y512872D01*
X471505Y510000D01*
Y506000D01*
X471883Y503128D01*
X472991Y500452D01*
X474755Y498155D01*
X477052Y496391D01*
X479728Y495283D01*
X482600Y494905D01*
X485472Y495283D01*
X488148Y496391D01*
X490445Y498155D01*
X492209Y500452D01*
X493317Y503128D01*
X493695Y506000D01*
Y510000D01*
X493317Y512872D01*
X492209Y515547D01*
X490445Y517845D01*
X488148Y519608D01*
X485472Y520717D01*
X482600Y521095D01*
D02*
G37*
G36*
X457200D02*
X454328Y520717D01*
X451652Y519608D01*
X449355Y517845D01*
X447592Y515547D01*
X446483Y512872D01*
X446105Y510000D01*
Y506000D01*
X446483Y503128D01*
X447592Y500452D01*
X449355Y498155D01*
X451652Y496391D01*
X454328Y495283D01*
X457200Y494905D01*
X460072Y495283D01*
X462747Y496391D01*
X465045Y498155D01*
X466809Y500452D01*
X467917Y503128D01*
X468295Y506000D01*
Y510000D01*
X467917Y512872D01*
X466809Y515547D01*
X465045Y517845D01*
X462747Y519608D01*
X460072Y520717D01*
X457200Y521095D01*
D02*
G37*
G36*
X391160D02*
X388288Y520717D01*
X385612Y519608D01*
X383315Y517845D01*
X381552Y515547D01*
X380443Y512872D01*
X380065Y510000D01*
Y506000D01*
X380443Y503128D01*
X381552Y500452D01*
X383315Y498155D01*
X385612Y496391D01*
X388288Y495283D01*
X391160Y494905D01*
X394032Y495283D01*
X396707Y496391D01*
X399005Y498155D01*
X400769Y500452D01*
X401877Y503128D01*
X402255Y506000D01*
Y510000D01*
X401877Y512872D01*
X400769Y515547D01*
X399005Y517845D01*
X396707Y519608D01*
X394032Y520717D01*
X391160Y521095D01*
D02*
G37*
G36*
X365760D02*
X362888Y520717D01*
X360213Y519608D01*
X357915Y517845D01*
X356152Y515547D01*
X355043Y512872D01*
X354665Y510000D01*
Y506000D01*
X355043Y503128D01*
X356152Y500452D01*
X357915Y498155D01*
X360213Y496391D01*
X362888Y495283D01*
X365760Y494905D01*
X368632Y495283D01*
X371307Y496391D01*
X373605Y498155D01*
X375368Y500452D01*
X376477Y503128D01*
X376855Y506000D01*
Y510000D01*
X376477Y512872D01*
X375368Y515547D01*
X373605Y517845D01*
X371307Y519608D01*
X368632Y520717D01*
X365760Y521095D01*
D02*
G37*
G36*
X340360D02*
X337488Y520717D01*
X334813Y519608D01*
X332515Y517845D01*
X330751Y515547D01*
X329643Y512872D01*
X329265Y510000D01*
Y506000D01*
X329643Y503128D01*
X330751Y500452D01*
X332515Y498155D01*
X334813Y496391D01*
X337488Y495283D01*
X340360Y494905D01*
X343232Y495283D01*
X345908Y496391D01*
X348205Y498155D01*
X349968Y500452D01*
X351077Y503128D01*
X351455Y506000D01*
Y510000D01*
X351077Y512872D01*
X349968Y515547D01*
X348205Y517845D01*
X345908Y519608D01*
X343232Y520717D01*
X340360Y521095D01*
D02*
G37*
G36*
X110955Y436626D02*
X110632Y436560D01*
X110303Y436552D01*
X110054Y436441D01*
X109786Y436386D01*
X100430Y432437D01*
X100112Y432221D01*
X99766Y432053D01*
X99622Y431890D01*
X99442Y431768D01*
X99230Y431447D01*
X98976Y431158D01*
X98905Y430953D01*
X98785Y430771D01*
X98713Y430393D01*
X98588Y430030D01*
X98602Y429813D01*
X98560Y429599D01*
X98638Y429222D01*
X98662Y428839D01*
X107007Y397219D01*
X107098Y397033D01*
X107138Y396829D01*
X107358Y396501D01*
X107531Y396147D01*
X107686Y396010D01*
X107801Y395837D01*
X108129Y395618D01*
X108425Y395357D01*
X108621Y395289D01*
X108794Y395174D01*
X109180Y395097D01*
X109554Y394969D01*
X109761Y394982D01*
X109964Y394941D01*
X119978D01*
X119978Y394941D01*
X121148Y395174D01*
X122141Y395837D01*
X122141Y395837D01*
X125523Y399219D01*
X126186Y400212D01*
X126419Y401382D01*
X126419Y401382D01*
Y407878D01*
X126307Y408440D01*
Y408440D01*
X126307Y408440D01*
X126186Y409049D01*
X125523Y410041D01*
X125006Y410386D01*
X125006Y410387D01*
X125006Y410387D01*
X125005Y410387D01*
X124755Y410554D01*
X118245Y417064D01*
X118088Y417300D01*
X118032Y417578D01*
Y418246D01*
X118118Y418677D01*
X119000Y420807D01*
Y423194D01*
X118087Y425399D01*
X116399Y427086D01*
X115624Y427407D01*
X115433Y427535D01*
X115389Y427553D01*
X115387Y427601D01*
X115332Y427824D01*
X115105Y433023D01*
X115040Y433288D01*
X115033Y433561D01*
X114899Y433862D01*
X114821Y434182D01*
X114659Y434402D01*
X114548Y434652D01*
X114310Y434879D01*
X114115Y435144D01*
X113881Y435286D01*
X113683Y435474D01*
X112610Y436153D01*
X112355Y436251D01*
X112127Y436401D01*
X111804Y436463D01*
X111496Y436582D01*
X111223Y436575D01*
X110955Y436626D01*
D02*
G37*
G36*
X77714Y397580D02*
X74686D01*
X71761Y396796D01*
X69139Y395282D01*
X66998Y393141D01*
X65484Y390519D01*
X64700Y387594D01*
Y384566D01*
X65484Y381641D01*
X66998Y379019D01*
X69139Y376878D01*
X71761Y375364D01*
X74686Y374580D01*
X77714D01*
X80639Y375364D01*
X82327Y376338D01*
X83916Y375803D01*
X84413Y374601D01*
X85422Y373593D01*
Y352750D01*
X84806D01*
X82601Y351837D01*
X80913Y350149D01*
X80000Y347943D01*
Y345556D01*
X80913Y343351D01*
X81922Y342343D01*
Y293000D01*
X81922Y293000D01*
X82232Y291439D01*
X83116Y290116D01*
X96874Y276359D01*
X96413Y275899D01*
X95500Y273694D01*
Y271306D01*
X96413Y269101D01*
X98101Y267413D01*
X100307Y266500D01*
X102694D01*
X104899Y267413D01*
X106587Y269101D01*
X107500Y271306D01*
Y273694D01*
X106587Y275899D01*
X105578Y276907D01*
Y277500D01*
X105578Y277500D01*
X105268Y279061D01*
X104384Y280384D01*
X90078Y294689D01*
Y313777D01*
X91348Y314604D01*
X92807Y314000D01*
X95194D01*
X97399Y314913D01*
X99087Y316601D01*
X100000Y318806D01*
Y321194D01*
X99087Y323399D01*
X98078Y324407D01*
Y347942D01*
X98078Y347942D01*
X97768Y349503D01*
X96884Y350826D01*
X96884Y350826D01*
X93578Y354132D01*
Y373593D01*
X94587Y374601D01*
X95500Y376806D01*
Y379193D01*
X94587Y381399D01*
X92899Y383087D01*
X90694Y384000D01*
X88863D01*
X88108Y384367D01*
X87700Y385123D01*
Y387594D01*
X86916Y390519D01*
X85402Y393141D01*
X83261Y395282D01*
X80639Y396796D01*
X77714Y397580D01*
D02*
G37*
G36*
X306943Y240750D02*
X304557D01*
X302351Y239837D01*
X300664Y238149D01*
X299750Y235944D01*
Y234518D01*
X287616Y222384D01*
X286732Y221061D01*
X286422Y219500D01*
X286422Y219500D01*
Y213445D01*
X285830Y213244D01*
X285152Y213117D01*
X282948Y214809D01*
X280272Y215917D01*
X277400Y216295D01*
X274528Y215917D01*
X271852Y214809D01*
X269555Y213045D01*
X267792Y210748D01*
X266683Y208072D01*
X266582Y207303D01*
X257464D01*
X245000Y219768D01*
Y221194D01*
X244087Y223399D01*
X242399Y225086D01*
X240194Y226000D01*
X237806D01*
X235601Y225086D01*
X233913Y223399D01*
X233000Y221194D01*
Y218806D01*
X233913Y216601D01*
X235601Y214913D01*
X237806Y214000D01*
X239232D01*
X252891Y200341D01*
X254214Y199457D01*
X255775Y199147D01*
X255775Y199147D01*
X266575D01*
X266683Y198328D01*
X267481Y196403D01*
X267492Y195033D01*
X265804Y193346D01*
X264891Y191140D01*
Y188754D01*
X265804Y186548D01*
X266812Y185540D01*
Y167949D01*
X266812Y167949D01*
X267123Y166388D01*
X268007Y165065D01*
X289956Y143116D01*
X289956Y143116D01*
X291279Y142232D01*
X292840Y141922D01*
X293093D01*
X294101Y140913D01*
X296306Y140000D01*
X297293D01*
X297546Y138730D01*
X297253Y138609D01*
X294955Y136845D01*
X293192Y134548D01*
X292083Y131872D01*
X291705Y129000D01*
Y125000D01*
X292083Y122128D01*
X293192Y119452D01*
X294955Y117155D01*
X297253Y115392D01*
X299928Y114283D01*
X302800Y113905D01*
X305672Y114283D01*
X308347Y115392D01*
X310645Y117155D01*
X312409Y119452D01*
X313517Y122128D01*
X313895Y125000D01*
Y129000D01*
X313517Y131872D01*
X312409Y134548D01*
X310645Y136845D01*
X308347Y138609D01*
X305672Y139717D01*
X302800Y140095D01*
X301611Y139938D01*
X301143Y141158D01*
X302586Y142601D01*
X303500Y144806D01*
Y147193D01*
X302586Y149399D01*
X300899Y151087D01*
X298694Y152000D01*
X296306D01*
X294101Y151087D01*
X293811Y150796D01*
X274969Y169638D01*
Y185540D01*
X275977Y186548D01*
X276891Y188754D01*
Y189659D01*
X277400Y190105D01*
X280272Y190483D01*
X282948Y191591D01*
X285152Y193283D01*
X285830Y193156D01*
X286422Y192955D01*
Y169407D01*
X285413Y168399D01*
X284500Y166194D01*
Y163806D01*
X285413Y161601D01*
X287101Y159913D01*
X289307Y159000D01*
X291693D01*
X293899Y159913D01*
X295587Y161601D01*
X296500Y163806D01*
Y166194D01*
X295587Y168399D01*
X294578Y169407D01*
Y192043D01*
X295848Y192669D01*
X297253Y191591D01*
X299928Y190483D01*
X302800Y190105D01*
X305672Y190483D01*
X308347Y191591D01*
X310645Y193355D01*
X312409Y195653D01*
X313517Y198328D01*
X313895Y201200D01*
Y205200D01*
X313517Y208072D01*
X312409Y210748D01*
X310645Y213045D01*
X308347Y214809D01*
X305672Y215917D01*
X302800Y216295D01*
X299928Y215917D01*
X297253Y214809D01*
X295848Y213731D01*
X294578Y214357D01*
Y217811D01*
X305518Y228750D01*
X306943D01*
X309149Y229663D01*
X310837Y231351D01*
X311750Y233556D01*
Y235944D01*
X310837Y238149D01*
X309149Y239837D01*
X306943Y240750D01*
D02*
G37*
G36*
X531400Y216295D02*
X528528Y215917D01*
X525853Y214809D01*
X523555Y213045D01*
X521791Y210748D01*
X520683Y208072D01*
X520305Y205200D01*
Y201200D01*
X520683Y198328D01*
X521791Y195653D01*
X523555Y193355D01*
X525853Y191591D01*
X528528Y190483D01*
X531400Y190105D01*
X534272Y190483D01*
X536948Y191591D01*
X539245Y193355D01*
X541008Y195653D01*
X542117Y198328D01*
X542495Y201200D01*
Y205200D01*
X542365Y206189D01*
X542117Y208072D01*
X541008Y210748D01*
X539245Y213045D01*
X536948Y214809D01*
X534272Y215917D01*
X531400Y216295D01*
D02*
G37*
G36*
X506000D02*
X503128Y215917D01*
X500452Y214809D01*
X498155Y213045D01*
X496391Y210748D01*
X495283Y208072D01*
X494905Y205200D01*
Y201200D01*
X495283Y198328D01*
X496391Y195653D01*
X498155Y193355D01*
X500452Y191591D01*
X503128Y190483D01*
X506000Y190105D01*
X508872Y190483D01*
X511548Y191591D01*
X513845Y193355D01*
X515608Y195653D01*
X516717Y198328D01*
X517095Y201200D01*
Y205200D01*
X516717Y208072D01*
X515608Y210748D01*
X513845Y213045D01*
X511548Y214809D01*
X508872Y215917D01*
X506000Y216295D01*
D02*
G37*
G36*
X480600D02*
X477728Y215917D01*
X475052Y214809D01*
X472755Y213045D01*
X470992Y210748D01*
X469883Y208072D01*
X469505Y205200D01*
Y201200D01*
X469638Y200193D01*
D01*
X469883Y198328D01*
X470992Y195653D01*
X472755Y193355D01*
X475052Y191591D01*
X477728Y190483D01*
X480600Y190105D01*
X482676Y190378D01*
X483472Y190483D01*
X486147Y191591D01*
X488445Y193355D01*
X490209Y195653D01*
X491317Y198328D01*
X491695Y201200D01*
Y205200D01*
X491317Y208072D01*
X490209Y210748D01*
X488445Y213045D01*
X486147Y214809D01*
X483472Y215917D01*
X480600Y216295D01*
D02*
G37*
G36*
X455200D02*
X452328Y215917D01*
X449652Y214809D01*
X447355Y213045D01*
X445592Y210748D01*
X444483Y208072D01*
X444105Y205200D01*
Y201200D01*
X444483Y198328D01*
X445592Y195653D01*
X447355Y193355D01*
X449652Y191591D01*
X452328Y190483D01*
X455200Y190105D01*
X458072Y190483D01*
X460747Y191591D01*
X463045Y193355D01*
X464809Y195653D01*
X465917Y198328D01*
X466295Y201200D01*
Y201245D01*
Y205200D01*
X465917Y208072D01*
X464809Y210748D01*
X463045Y213045D01*
X460747Y214809D01*
X458072Y215917D01*
X455200Y216295D01*
D02*
G37*
G36*
X404400D02*
X401528Y215917D01*
X398853Y214809D01*
X396555Y213045D01*
X394791Y210748D01*
X393683Y208072D01*
X393305Y205200D01*
Y201200D01*
X393683Y198328D01*
X394791Y195653D01*
X396555Y193355D01*
X398853Y191591D01*
X401528Y190483D01*
X404400Y190105D01*
X407272Y190483D01*
X409948Y191591D01*
X412245Y193355D01*
X414008Y195653D01*
X415117Y198328D01*
X415495Y201200D01*
Y205200D01*
X415117Y208072D01*
X414008Y210748D01*
X412245Y213045D01*
X409948Y214809D01*
X407272Y215917D01*
X404400Y216295D01*
D02*
G37*
G36*
X379000D02*
X376128Y215917D01*
X373452Y214809D01*
X371155Y213045D01*
X369392Y210748D01*
X368283Y208072D01*
X367905Y205200D01*
Y201200D01*
X368283Y198328D01*
X369392Y195653D01*
X371155Y193355D01*
X373452Y191591D01*
X376128Y190483D01*
X379000Y190105D01*
X381872Y190483D01*
X384548Y191591D01*
X386845Y193355D01*
X388609Y195653D01*
X389717Y198328D01*
X390095Y201200D01*
Y205200D01*
X389717Y208072D01*
X388609Y210748D01*
X386845Y213045D01*
X384548Y214809D01*
X381872Y215917D01*
X379000Y216295D01*
D02*
G37*
G36*
X353600D02*
X350728Y215917D01*
X348052Y214809D01*
X345755Y213045D01*
X343992Y210748D01*
X342883Y208072D01*
X342505Y205200D01*
Y201200D01*
X342883Y198328D01*
X343992Y195653D01*
X345755Y193355D01*
X348052Y191591D01*
X350728Y190483D01*
X353600Y190105D01*
X356472Y190483D01*
X359147Y191591D01*
X361445Y193355D01*
X363209Y195653D01*
X364317Y198328D01*
X364695Y201200D01*
Y205200D01*
X364317Y208072D01*
X363209Y210748D01*
X361445Y213045D01*
X359147Y214809D01*
X356472Y215917D01*
X353600Y216295D01*
D02*
G37*
G36*
X328200D02*
X325328Y215917D01*
X322653Y214809D01*
X320355Y213045D01*
X318591Y210748D01*
X317483Y208072D01*
X317105Y205200D01*
Y201200D01*
X317483Y198328D01*
X318591Y195653D01*
X320355Y193355D01*
X322653Y191591D01*
X325328Y190483D01*
X328200Y190105D01*
X331072Y190483D01*
X333747Y191591D01*
X336045Y193355D01*
X337808Y195653D01*
X338917Y198328D01*
X339295Y201200D01*
Y205200D01*
X338917Y208072D01*
X337808Y210748D01*
X336045Y213045D01*
X333747Y214809D01*
X331072Y215917D01*
X328200Y216295D01*
D02*
G37*
G36*
X121944Y217500D02*
X119557D01*
X117351Y216587D01*
X115663Y214899D01*
X114750Y212694D01*
Y210306D01*
X115663Y208101D01*
X117351Y206413D01*
X119557Y205500D01*
X120982D01*
X123866Y202616D01*
X123866Y202616D01*
X125189Y201732D01*
X126750Y201422D01*
X126750Y201422D01*
X127745D01*
X128231Y200248D01*
X122482Y194500D01*
X121056D01*
X118851Y193587D01*
X117163Y191899D01*
X116250Y189693D01*
Y187306D01*
X117163Y185101D01*
X118851Y183413D01*
X121056Y182500D01*
X123443D01*
X125649Y183413D01*
X127337Y185101D01*
X128250Y187306D01*
Y188732D01*
X135189Y195672D01*
X156843D01*
X157851Y194663D01*
X160056Y193750D01*
X161628D01*
X161857Y193407D01*
X161978Y192480D01*
X161882Y192000D01*
X162000Y191409D01*
Y190807D01*
X162231Y190250D01*
X162348Y189659D01*
X162683Y189158D01*
X162913Y188601D01*
X163340Y188175D01*
X163674Y187674D01*
X164175Y187339D01*
X164601Y186913D01*
X165158Y186683D01*
X165659Y186348D01*
X166250Y186231D01*
X166807Y186000D01*
X167409D01*
X168000Y185882D01*
X168591Y186000D01*
X169193D01*
X169750Y186231D01*
X170341Y186348D01*
X170842Y186683D01*
X171399Y186913D01*
X171493Y187008D01*
X187375D01*
X189716Y187473D01*
X191701Y188799D01*
X206076Y203174D01*
X206411Y203675D01*
X206836Y204101D01*
X207067Y204658D01*
X207402Y205159D01*
X207519Y205750D01*
X207750Y206306D01*
Y206909D01*
X207868Y207500D01*
X207750Y208091D01*
Y208694D01*
X207519Y209250D01*
X207402Y209841D01*
X207067Y210342D01*
X206836Y210899D01*
X206411Y211325D01*
X206076Y211826D01*
X205575Y212160D01*
X205149Y212586D01*
X204592Y212817D01*
X204091Y213152D01*
X203500Y213269D01*
X202943Y213500D01*
X202341D01*
X201750Y213617D01*
X201159Y213500D01*
X200557D01*
X200000Y213269D01*
X199409Y213152D01*
X198908Y212817D01*
X198351Y212586D01*
X197925Y212160D01*
X197424Y211826D01*
X184841Y199243D01*
X175537D01*
X175284Y200513D01*
X175649Y200664D01*
X177337Y202351D01*
X178250Y204557D01*
Y206943D01*
X177337Y209149D01*
X175649Y210837D01*
X173444Y211750D01*
X171056D01*
X168851Y210837D01*
X167843Y209828D01*
X165787D01*
X165503Y210018D01*
X163942Y210328D01*
X163942Y210328D01*
X155750D01*
X154493Y210078D01*
X145750D01*
X145750Y210078D01*
X144189Y209768D01*
X143906Y209578D01*
X128439D01*
X126750Y211268D01*
Y212694D01*
X125837Y214899D01*
X124149Y216587D01*
X121944Y217500D01*
D02*
G37*
G36*
X556800Y140095D02*
X553928Y139717D01*
X551253Y138609D01*
X548955Y136845D01*
X547192Y134548D01*
X546083Y131872D01*
X545705Y129000D01*
Y125000D01*
X546083Y122128D01*
X547192Y119452D01*
X548955Y117155D01*
X551253Y115392D01*
X553928Y114283D01*
X556800Y113905D01*
X559672Y114283D01*
X562347Y115392D01*
X564645Y117155D01*
X566409Y119452D01*
X567517Y122128D01*
X567895Y125000D01*
Y129000D01*
X567517Y131872D01*
X566409Y134548D01*
X564645Y136845D01*
X562347Y138609D01*
X559672Y139717D01*
X556800Y140095D01*
D02*
G37*
G36*
X531400D02*
X528528Y139717D01*
X525853Y138609D01*
X523555Y136845D01*
X521791Y134548D01*
X520683Y131872D01*
X520305Y129000D01*
Y125000D01*
X520683Y122128D01*
X521791Y119452D01*
X523555Y117155D01*
X525853Y115392D01*
X528528Y114283D01*
X531400Y113905D01*
X534272Y114283D01*
X536948Y115392D01*
X539245Y117155D01*
X541008Y119452D01*
X542117Y122128D01*
X542495Y125000D01*
Y129000D01*
X542117Y131872D01*
X541008Y134548D01*
X539245Y136845D01*
X536948Y138609D01*
X534272Y139717D01*
X531400Y140095D01*
D02*
G37*
G36*
X494000Y159059D02*
X450596D01*
X449426Y158826D01*
X448433Y158163D01*
X447770Y157170D01*
X447537Y156000D01*
Y152168D01*
X447564Y152035D01*
X447549Y151901D01*
X447584Y151502D01*
X447714Y151055D01*
X447805Y150598D01*
X447880Y150486D01*
X447918Y150356D01*
X448209Y149993D01*
X448468Y149606D01*
X460336Y137738D01*
Y136390D01*
X460414Y135998D01*
X460440Y135599D01*
X460529Y135418D01*
X460568Y135220D01*
X460791Y134887D01*
X460968Y134528D01*
X462102Y133050D01*
Y120950D01*
X460968Y119472D01*
X460791Y119113D01*
X460568Y118780D01*
X460529Y118582D01*
X460440Y118401D01*
X460414Y118002D01*
X460336Y117610D01*
Y104794D01*
X460336Y104794D01*
X460568Y103623D01*
X461231Y102631D01*
X461231Y102631D01*
X461738Y102124D01*
X462730Y101461D01*
X463901Y101228D01*
X463901Y101228D01*
X493199D01*
X493317Y101252D01*
X493438Y101238D01*
X493899Y101368D01*
X494369Y101461D01*
X494470Y101529D01*
X494586Y101561D01*
X494963Y101858D01*
X495361Y102124D01*
X495429Y102225D01*
X495524Y102300D01*
X496325Y103238D01*
X496560Y103656D01*
X496826Y104055D01*
X496850Y104173D01*
X496909Y104279D01*
X496965Y104755D01*
X497059Y105225D01*
Y116706D01*
X498329Y117021D01*
X500452Y115392D01*
X503128Y114283D01*
X506000Y113905D01*
X508872Y114283D01*
X511548Y115392D01*
X513845Y117155D01*
X515608Y119452D01*
X516717Y122128D01*
X517095Y125000D01*
Y129000D01*
X516717Y131872D01*
X515608Y134548D01*
X513845Y136845D01*
X511548Y138609D01*
X508872Y139717D01*
X506000Y140095D01*
X503128Y139717D01*
X500452Y138609D01*
X498329Y136979D01*
X497059Y137294D01*
Y156000D01*
X496826Y157170D01*
X496163Y158163D01*
X495171Y158826D01*
X494000Y159059D01*
D02*
G37*
G36*
X429800Y140095D02*
X426928Y139717D01*
X424253Y138609D01*
X421955Y136845D01*
X420191Y134548D01*
X419083Y131872D01*
X418705Y129000D01*
Y125000D01*
X419083Y122128D01*
X420191Y119452D01*
X421955Y117155D01*
X424253Y115392D01*
X426928Y114283D01*
X429800Y113905D01*
X432672Y114283D01*
X435348Y115392D01*
X437645Y117155D01*
X439408Y119452D01*
X440517Y122128D01*
X440895Y125000D01*
Y129000D01*
X440517Y131872D01*
X439408Y134548D01*
X437645Y136845D01*
X435348Y138609D01*
X432672Y139717D01*
X429800Y140095D01*
D02*
G37*
G36*
X404400D02*
X401528Y139717D01*
X398853Y138609D01*
X396555Y136845D01*
X394791Y134548D01*
X393683Y131872D01*
X393305Y129000D01*
Y125000D01*
X393683Y122128D01*
X394791Y119452D01*
X396555Y117155D01*
X398853Y115392D01*
X401528Y114283D01*
X404400Y113905D01*
X407272Y114283D01*
X409948Y115392D01*
X412245Y117155D01*
X414008Y119452D01*
X415117Y122128D01*
X415495Y125000D01*
Y129000D01*
X415117Y131872D01*
X414008Y134548D01*
X412245Y136845D01*
X409948Y138609D01*
X407272Y139717D01*
X404400Y140095D01*
D02*
G37*
G36*
X379000D02*
X376128Y139717D01*
X373452Y138609D01*
X371155Y136845D01*
X369392Y134548D01*
X368283Y131872D01*
X367905Y129000D01*
Y125000D01*
X368283Y122128D01*
X369392Y119452D01*
X371155Y117155D01*
X373452Y115392D01*
X376128Y114283D01*
X379000Y113905D01*
X381872Y114283D01*
X384548Y115392D01*
X386845Y117155D01*
X388609Y119452D01*
X389717Y122128D01*
X390095Y125000D01*
Y129000D01*
X389717Y131872D01*
X388609Y134548D01*
X386845Y136845D01*
X384548Y138609D01*
X381872Y139717D01*
X379000Y140095D01*
D02*
G37*
G36*
X353600D02*
X350728Y139717D01*
X348052Y138609D01*
X345755Y136845D01*
X343992Y134548D01*
X342883Y131872D01*
X342505Y129000D01*
Y125000D01*
X342883Y122128D01*
X343992Y119452D01*
X345755Y117155D01*
X348052Y115392D01*
X350728Y114283D01*
X353600Y113905D01*
X356472Y114283D01*
X359147Y115392D01*
X361445Y117155D01*
X363209Y119452D01*
X364317Y122128D01*
X364695Y125000D01*
Y129000D01*
X364317Y131872D01*
X363209Y134548D01*
X361445Y136845D01*
X359147Y138609D01*
X356472Y139717D01*
X353600Y140095D01*
D02*
G37*
G36*
X328200D02*
X325328Y139717D01*
X322653Y138609D01*
X320355Y136845D01*
X318591Y134548D01*
X317483Y131872D01*
X317105Y129000D01*
Y125000D01*
X317483Y122128D01*
X318591Y119452D01*
X320355Y117155D01*
X322653Y115392D01*
X325328Y114283D01*
X328200Y113905D01*
X331072Y114283D01*
X333747Y115392D01*
X336045Y117155D01*
X337808Y119452D01*
X338917Y122128D01*
X339295Y125000D01*
Y129000D01*
X338917Y131872D01*
X337808Y134548D01*
X336045Y136845D01*
X333747Y138609D01*
X331072Y139717D01*
X328200Y140095D01*
D02*
G37*
G36*
X277400D02*
X274528Y139717D01*
X271852Y138609D01*
X269555Y136845D01*
X267792Y134548D01*
X266683Y131872D01*
X266305Y129000D01*
Y125000D01*
X266683Y122128D01*
X267792Y119452D01*
X269555Y117155D01*
X271852Y115392D01*
X274528Y114283D01*
X277400Y113905D01*
X280272Y114283D01*
X282948Y115392D01*
X285245Y117155D01*
X287008Y119452D01*
X288117Y122128D01*
X288495Y125000D01*
Y129000D01*
X288117Y131872D01*
X287008Y134548D01*
X285245Y136845D01*
X282948Y138609D01*
X280272Y139717D01*
X277400Y140095D01*
D02*
G37*
%LPD*%
G36*
X112049Y432889D02*
X112167Y430202D01*
X112290Y427389D01*
X112416Y426873D01*
X112520Y426352D01*
X112557Y426296D01*
X112574Y426230D01*
X112888Y425802D01*
X113183Y425360D01*
X113239Y425322D01*
X113279Y425267D01*
X113733Y424992D01*
X114175Y424697D01*
X114666Y424493D01*
X115493Y423666D01*
X115941Y422585D01*
Y421415D01*
X115290Y419843D01*
X115206Y419717D01*
X114973Y418547D01*
X114973Y418547D01*
Y417277D01*
X114973Y417277D01*
X115206Y416106D01*
X115869Y415114D01*
X115869Y415114D01*
D01*
X122592Y408391D01*
X122843Y408224D01*
X123055Y408011D01*
X123254Y407878D01*
X123360D01*
Y401382D01*
X119978Y398000D01*
X109964D01*
X101619Y429619D01*
X110975Y433568D01*
X112049Y432889D01*
D02*
G37*
G36*
X494000Y105225D02*
X493199Y104287D01*
X463901D01*
X463394Y104794D01*
Y117610D01*
X464809Y119452D01*
X465917Y122128D01*
X466295Y125000D01*
Y129000D01*
X465917Y131872D01*
X464809Y134548D01*
X463394Y136390D01*
Y139005D01*
X450631Y151769D01*
X450596Y152168D01*
Y156000D01*
X494000D01*
Y105225D01*
D02*
G37*
%LPC*%
G36*
X480600Y140095D02*
X477728Y139717D01*
X475052Y138609D01*
X472755Y136845D01*
X470992Y134548D01*
X469883Y131872D01*
X469505Y129000D01*
Y125000D01*
X469883Y122128D01*
X470992Y119452D01*
X472755Y117155D01*
X475052Y115392D01*
X477728Y114283D01*
X480600Y113905D01*
X483472Y114283D01*
X486147Y115392D01*
X488445Y117155D01*
X490209Y119452D01*
X491317Y122128D01*
X491695Y125000D01*
Y129000D01*
X491317Y131872D01*
X490209Y134548D01*
X488445Y136845D01*
X486147Y138609D01*
X483472Y139717D01*
X480600Y140095D01*
D02*
G37*
G36*
X260000Y91000D02*
X235000D01*
Y66000D01*
X260000D01*
Y91000D01*
D02*
G37*
G36*
X519000Y38400D02*
X497000D01*
Y12400D01*
X519000D01*
Y38400D01*
D02*
G37*
G36*
X609600Y38495D02*
X606728Y38117D01*
X604053Y37009D01*
X601755Y35245D01*
X599991Y32947D01*
X598883Y30272D01*
X598505Y27400D01*
Y23400D01*
X598883Y20528D01*
X599991Y17852D01*
X601755Y15555D01*
X604053Y13792D01*
X606728Y12683D01*
X609600Y12305D01*
X612472Y12683D01*
X615148Y13792D01*
X617445Y15555D01*
X619208Y17852D01*
X620317Y20528D01*
X620695Y23400D01*
Y27400D01*
X620317Y30272D01*
X619208Y32947D01*
X617445Y35245D01*
X615148Y37009D01*
X612472Y38117D01*
X609600Y38495D01*
D02*
G37*
G36*
X584200D02*
X581328Y38117D01*
X578652Y37009D01*
X576355Y35245D01*
X574591Y32947D01*
X573483Y30272D01*
X573105Y27400D01*
Y23400D01*
X573483Y20528D01*
X574591Y17852D01*
X576355Y15555D01*
X578652Y13792D01*
X581328Y12683D01*
X584200Y12305D01*
X587072Y12683D01*
X589748Y13792D01*
X592045Y15555D01*
X593809Y17852D01*
X594917Y20528D01*
X595295Y23400D01*
Y27400D01*
X594917Y30272D01*
X593809Y32947D01*
X592045Y35245D01*
X589748Y37009D01*
X587072Y38117D01*
X584200Y38495D01*
D02*
G37*
G36*
X558800D02*
X555928Y38117D01*
X553252Y37009D01*
X550955Y35245D01*
X549192Y32947D01*
X548083Y30272D01*
X547705Y27400D01*
Y23400D01*
X548083Y20528D01*
X549192Y17852D01*
X550955Y15555D01*
X553252Y13792D01*
X555928Y12683D01*
X558800Y12305D01*
X561672Y12683D01*
X564347Y13792D01*
X566645Y15555D01*
X568409Y17852D01*
X569517Y20528D01*
X569895Y23400D01*
Y27400D01*
X569517Y30272D01*
X568409Y32947D01*
X566645Y35245D01*
X564347Y37009D01*
X561672Y38117D01*
X558800Y38495D01*
D02*
G37*
G36*
X533400D02*
X530528Y38117D01*
X527853Y37009D01*
X525555Y35245D01*
X523792Y32947D01*
X522683Y30272D01*
X522305Y27400D01*
Y23400D01*
X522683Y20528D01*
X523792Y17852D01*
X525555Y15555D01*
X527853Y13792D01*
X530528Y12683D01*
X533400Y12305D01*
X536272Y12683D01*
X538947Y13792D01*
X541245Y15555D01*
X543008Y17852D01*
X544117Y20528D01*
X544495Y23400D01*
Y27400D01*
X544117Y30272D01*
X543008Y32947D01*
X541245Y35245D01*
X538947Y37009D01*
X536272Y38117D01*
X533400Y38495D01*
D02*
G37*
G36*
X457200D02*
X454328Y38117D01*
X451652Y37009D01*
X449355Y35245D01*
X447592Y32947D01*
X446483Y30272D01*
X446105Y27400D01*
Y23400D01*
X446483Y20528D01*
X447592Y17852D01*
X449355Y15555D01*
X451652Y13792D01*
X454328Y12683D01*
X457200Y12305D01*
X460072Y12683D01*
X462747Y13792D01*
X465045Y15555D01*
X466809Y17852D01*
X467917Y20528D01*
X468295Y23400D01*
Y27400D01*
X467917Y30272D01*
X466809Y32947D01*
X465045Y35245D01*
X462747Y37009D01*
X460072Y38117D01*
X457200Y38495D01*
D02*
G37*
G36*
X431800D02*
X428928Y38117D01*
X426253Y37009D01*
X423955Y35245D01*
X422192Y32947D01*
X421083Y30272D01*
X420705Y27400D01*
Y23400D01*
X421083Y20528D01*
X422192Y17852D01*
X423955Y15555D01*
X426253Y13792D01*
X428928Y12683D01*
X431800Y12305D01*
X434672Y12683D01*
X437347Y13792D01*
X439645Y15555D01*
X441409Y17852D01*
X442517Y20528D01*
X442895Y23400D01*
Y27400D01*
X442517Y30272D01*
X441409Y32947D01*
X439645Y35245D01*
X437347Y37009D01*
X434672Y38117D01*
X431800Y38495D01*
D02*
G37*
G36*
X204146Y91000D02*
X200854D01*
X197675Y90148D01*
X194825Y88503D01*
X192498Y86175D01*
X190852Y83325D01*
X190000Y80146D01*
Y76854D01*
X190852Y73675D01*
X192498Y70825D01*
X194825Y68498D01*
X197675Y66852D01*
X200854Y66000D01*
X204146D01*
X207325Y66852D01*
X210175Y68498D01*
X212502Y70825D01*
X214148Y73675D01*
X215000Y76854D01*
Y80146D01*
X214148Y83325D01*
X212502Y86175D01*
X210175Y88503D01*
X207325Y90148D01*
X204146Y91000D01*
D02*
G37*
%LPD*%
D10*
X290500Y219500D02*
X305750Y234750D01*
X290500Y165000D02*
Y219500D01*
X255775Y203225D02*
X277375D01*
X239000Y220000D02*
X255775Y203225D01*
X277375D02*
X277400Y203200D01*
X568000Y476000D02*
X591250Y452750D01*
Y248250D02*
Y452750D01*
X273722Y476000D02*
X568000D01*
X586250Y217413D02*
X597000Y206663D01*
X586250Y217413D02*
Y445734D01*
X596250Y255250D02*
Y436500D01*
X591250Y248250D02*
X650500Y189000D01*
X596250Y436500D02*
X612000Y452250D01*
X596250Y255250D02*
X652000Y199500D01*
X510000Y429000D02*
X514000Y433000D01*
X308000Y400000D02*
X332000Y424000D01*
X386000D02*
X393500Y416500D01*
X284000Y427000D02*
X284812D01*
X332000Y424000D02*
X386000D01*
X514000Y433000D02*
X523000D01*
X284812Y427000D02*
X286812Y429000D01*
X510000D01*
X220857Y400000D02*
X308000D01*
X393500Y416500D02*
X567750D01*
X215857Y395000D02*
X220857Y400000D01*
X215250Y395000D02*
X215857D01*
X582200Y129000D02*
X597000Y143800D01*
Y206663D01*
X251500Y498222D02*
X273722Y476000D01*
X260250Y471000D02*
X560984D01*
X586250Y445734D01*
X239000Y492250D02*
X260250Y471000D01*
X547558Y449000D02*
X550558Y452000D01*
X555942D02*
X559750Y448192D01*
X550558Y452000D02*
X555942D01*
X559750Y447265D02*
Y448192D01*
X560007Y433250D02*
Y447007D01*
X149000Y449000D02*
X547558D01*
X146000Y446000D02*
X149000Y449000D01*
X559750Y447265D02*
X560007Y447007D01*
X233269Y492250D02*
X239000D01*
X251500Y498222D02*
Y519743D01*
X227269Y498250D02*
X233269Y492250D01*
X86000Y293000D02*
X101500Y277500D01*
Y272500D02*
Y277500D01*
X86000Y293000D02*
Y346750D01*
X94000Y320000D02*
Y347942D01*
X89500Y352442D02*
Y378000D01*
Y352442D02*
X94000Y347942D01*
X126750Y205500D02*
X145250D01*
X155500Y206000D02*
X155750Y206250D01*
X145750Y206000D02*
X155500D01*
X145250Y205500D02*
X145750Y206000D01*
X120750Y211500D02*
X126750Y205500D01*
X163942Y206250D02*
X164442Y205750D01*
X155750Y206250D02*
X163942D01*
X164442Y205750D02*
X172250D01*
X133500Y199750D02*
X161250D01*
X122250Y188500D02*
X133500Y199750D01*
X273000Y428000D02*
X287750Y442750D01*
X291500Y486500D02*
X292312D01*
X313812Y508000D02*
X314960D01*
X292312Y486500D02*
X313812Y508000D01*
X248493Y522750D02*
X251500Y519743D01*
X213538Y508000D02*
X223288Y498250D01*
X213360Y508000D02*
X213538D01*
X223288Y498250D02*
X227269D01*
X200710Y522750D02*
X248493D01*
X76200Y472440D02*
X117560D01*
X144000Y446000D01*
X146000D01*
X287750Y442750D02*
X549688D01*
X552438Y445500D02*
X553250D01*
X549688Y442750D02*
X552438Y445500D01*
X187960Y510000D02*
X200710Y522750D01*
X187960Y508000D02*
Y510000D01*
X582200Y127000D02*
Y129000D01*
X652000Y199500D02*
X661250D01*
X650500Y169900D02*
Y189000D01*
X609600Y129000D02*
X650500Y169900D01*
X609600Y127000D02*
Y129000D01*
X661250Y199500D02*
X665250Y195500D01*
Y180750D02*
Y195500D01*
X292840Y146000D02*
X297500D01*
X270891Y167949D02*
Y189947D01*
Y167949D02*
X292840Y146000D01*
D12*
X581867Y169617D02*
X589617D01*
X590000Y170000D01*
X580750Y168500D02*
X581867Y169617D01*
X570200Y196229D02*
Y216800D01*
Y196229D02*
X580750Y185679D01*
Y168500D02*
Y185679D01*
X609500Y308000D02*
X674500D01*
X664893Y317607D02*
Y351107D01*
X660400Y355600D02*
X664893Y351107D01*
Y317607D02*
X674500Y308000D01*
Y308000D02*
Y308000D01*
X467200Y108550D02*
Y140550D01*
X455200Y152550D02*
X467200Y140550D01*
X539750Y247250D02*
X570200Y216800D01*
D19*
X247500Y78500D02*
D03*
D63*
X674500Y263000D02*
D03*
D64*
X609500D02*
D03*
Y308000D02*
D03*
X674500D02*
D03*
X247500Y13500D02*
D03*
X202500D02*
D03*
Y78500D02*
D03*
D68*
X168000Y192000D02*
X169125Y193125D01*
X187375D01*
X201750Y207500D01*
D71*
X143700Y88000D02*
Y90000D01*
D72*
X539750Y243250D02*
Y247250D01*
X246000Y462500D02*
X557463D01*
X569500Y213713D02*
Y213713D01*
X539750Y243250D02*
X554518Y228482D01*
X557463Y462500D02*
X577750Y442213D01*
X554732Y228482D02*
X569500Y213713D01*
X554518Y228482D02*
X554732D01*
X228250Y480250D02*
X246000Y462500D01*
X539750Y247250D02*
Y329134D01*
X577750Y367134D01*
Y442213D01*
D73*
X14750Y127500D02*
D03*
X14000Y23000D02*
D03*
D74*
X118300Y88000D02*
D03*
X416560Y508000D02*
D03*
X635000D02*
D03*
X279400Y25400D02*
D03*
X508000D02*
D03*
X609600Y203200D02*
D03*
D75*
X169100Y88000D02*
D03*
X143700D02*
D03*
X391160Y508000D02*
D03*
X365760D02*
D03*
X340360D02*
D03*
X314960D02*
D03*
X289560D02*
D03*
X264160D02*
D03*
X238760D02*
D03*
X213360D02*
D03*
X187960D02*
D03*
X609600D02*
D03*
X584200D02*
D03*
X558800D02*
D03*
X533400D02*
D03*
X508000D02*
D03*
X482600D02*
D03*
X457200D02*
D03*
X304800Y25400D02*
D03*
X330200D02*
D03*
X355600D02*
D03*
X381000D02*
D03*
X406400D02*
D03*
X431800D02*
D03*
X457200D02*
D03*
X533400D02*
D03*
X558800D02*
D03*
X584200D02*
D03*
X635000D02*
D03*
X609600D02*
D03*
X302800Y127000D02*
D03*
X328200D02*
D03*
X353600D02*
D03*
X379000D02*
D03*
X404400D02*
D03*
X429800D02*
D03*
X455200D02*
D03*
X480600D02*
D03*
X506000D02*
D03*
X531400D02*
D03*
X556800D02*
D03*
X582200D02*
D03*
X609600D02*
D03*
X277400Y203200D02*
D03*
X302800D02*
D03*
X328200D02*
D03*
X353600D02*
D03*
X379000D02*
D03*
X404400D02*
D03*
X429800D02*
D03*
X455200D02*
D03*
X480600D02*
D03*
X506000D02*
D03*
X531400D02*
D03*
X556800D02*
D03*
X582200D02*
D03*
X277400Y127000D02*
D03*
D76*
X146000Y446000D02*
D03*
X662000Y469000D02*
D03*
D77*
X146000Y369800D02*
D03*
Y395200D02*
D03*
Y420600D02*
D03*
X662000Y443600D02*
D03*
Y418200D02*
D03*
D78*
X50800Y342000D02*
D03*
X25400Y386080D02*
D03*
Y472440D02*
D03*
D79*
Y342000D02*
D03*
X50800Y316600D02*
D03*
X25400D02*
D03*
X50800Y386080D02*
D03*
X76200D02*
D03*
X25400Y411480D02*
D03*
X50800D02*
D03*
X76200D02*
D03*
X50800Y472440D02*
D03*
X76200D02*
D03*
X25400Y497840D02*
D03*
X50800D02*
D03*
X76200D02*
D03*
D80*
X8620Y155000D02*
D03*
Y221000D02*
D03*
D81*
X144780Y25400D02*
D03*
X660000Y78000D02*
D03*
X660400Y355600D02*
D03*
D82*
X152400Y508000D02*
D03*
D83*
X42500Y205750D02*
D03*
X107000Y129000D02*
D03*
X113000Y138000D02*
D03*
X104000D02*
D03*
X125000Y166000D02*
D03*
X145000Y163000D02*
D03*
Y171000D02*
D03*
Y177000D02*
D03*
X370000Y491250D02*
D03*
X361500Y484000D02*
D03*
Y491000D02*
D03*
X371750Y484500D02*
D03*
X370500Y411000D02*
D03*
Y417000D02*
D03*
X360250Y416750D02*
D03*
X360000Y410750D02*
D03*
X305750Y234750D02*
D03*
X239000Y220000D02*
D03*
X565000Y403000D02*
D03*
Y396000D02*
D03*
X615000Y78000D02*
D03*
X418000Y62000D02*
D03*
X399000Y63000D02*
D03*
X321000Y68000D02*
D03*
X113279Y411041D02*
D03*
X113000Y422000D02*
D03*
X291500Y486500D02*
D03*
X168000Y192000D02*
D03*
X165000Y129000D02*
D03*
X553250Y445500D02*
D03*
X523000Y433000D02*
D03*
X284000Y427000D02*
D03*
X70000Y524000D02*
D03*
X215250Y395000D02*
D03*
X66000Y444000D02*
D03*
X73000Y177000D02*
D03*
X177000Y130000D02*
D03*
X64250Y222500D02*
D03*
X82250Y284000D02*
D03*
X421000Y215250D02*
D03*
X364750Y253000D02*
D03*
X461000D02*
D03*
X110500Y246750D02*
D03*
X149000Y226500D02*
D03*
X150000Y271750D02*
D03*
X176819Y212317D02*
D03*
X198500Y214810D02*
D03*
X230500Y211500D02*
D03*
X269500Y253500D02*
D03*
X220750Y254250D02*
D03*
X184000Y288000D02*
D03*
X216000Y336250D02*
D03*
X274250Y352000D02*
D03*
X197750Y439000D02*
D03*
X185750Y415250D02*
D03*
X564750Y389000D02*
D03*
X625250Y191000D02*
D03*
X631000Y174250D02*
D03*
X677250Y129000D02*
D03*
X465750Y88250D02*
D03*
X451000Y112500D02*
D03*
X409500Y61000D02*
D03*
X383000Y77000D02*
D03*
X393000Y114750D02*
D03*
X368000Y67500D02*
D03*
X307000Y82250D02*
D03*
X211000Y138500D02*
D03*
X81750Y239000D02*
D03*
X302500Y384000D02*
D03*
X229500Y437750D02*
D03*
X184000Y392750D02*
D03*
X117000Y405000D02*
D03*
X13000Y272750D02*
D03*
X44750Y275000D02*
D03*
X289397Y63728D02*
D03*
X319250Y61500D02*
D03*
X456647Y47228D02*
D03*
X436000Y48250D02*
D03*
X615000Y66000D02*
D03*
X94000Y320000D02*
D03*
X89500Y378000D02*
D03*
X101500Y272500D02*
D03*
X86000Y346750D02*
D03*
X467200Y108550D02*
D03*
X455200Y152550D02*
D03*
X201750Y207500D02*
D03*
X84750Y109000D02*
D03*
Y102500D02*
D03*
X172250Y205750D02*
D03*
X161250Y199750D02*
D03*
X122250Y188500D02*
D03*
X120750Y211500D02*
D03*
X273000Y428000D02*
D03*
X560007Y433250D02*
D03*
X567750Y416500D02*
D03*
X228250Y480250D02*
D03*
X590000Y170000D02*
D03*
X665250Y180750D02*
D03*
X612000Y452250D02*
D03*
X297500Y146000D02*
D03*
X270891Y189947D02*
D03*
X290500Y165000D02*
D03*
M02*
