G04*
G04 #@! TF.GenerationSoftware,Altium Limited,Altium Designer,22.1.2 (22)*
G04*
G04 Layer_Color=8388736*
%FSLAX44Y44*%
%MOMM*%
G71*
G04*
G04 #@! TF.SameCoordinates,1F279A6F-825B-41A2-8EC7-F4161A23EE25*
G04*
G04*
G04 #@! TF.FilePolarity,Positive*
G04*
G01*
G75*
%ADD84C,1.0160*%
%ADD85C,0.2540*%
%ADD86C,0.3810*%
%ADD87C,0.7000*%
%ADD88C,0.1524*%
D84*
X676400Y355600D02*
G03*
X676400Y355600I-16000J0D01*
G01*
X676000Y78000D02*
G03*
X676000Y78000I-16000J0D01*
G01*
X160780Y25400D02*
G03*
X160780Y25400I-16000J0D01*
G01*
X168400Y508000D02*
G03*
X168400Y508000I-16000J0D01*
G01*
X0Y0D02*
Y533400D01*
Y0D02*
X685800D01*
Y533400D01*
X0D02*
X685800D01*
D85*
X0Y-50000D02*
X15240Y-44920D01*
X0Y-50000D02*
X15240Y-55080D01*
X670560D02*
X685800Y-50000D01*
X670560Y-44920D02*
X685800Y-50000D01*
X0D02*
X306841D01*
X370831D02*
X685800D01*
X0Y-52540D02*
Y-7620D01*
X685800Y-52540D02*
Y-7620D01*
X-75080Y15240D02*
X-70000Y0D01*
X-64920Y15240D01*
X-70000Y533400D02*
X-64920Y518160D01*
X-75080D02*
X-70000Y533400D01*
Y0D02*
Y231911D01*
Y293361D02*
Y533400D01*
X-72540Y0D02*
X-7620D01*
X-72540Y533400D02*
X-7620D01*
D86*
X-234696Y-56903D02*
Y-73830D01*
X-231310Y-77216D01*
X-224539D01*
X-221154Y-73830D01*
Y-56903D01*
X-214383Y-77216D02*
Y-63674D01*
X-204226D01*
X-200840Y-67059D01*
Y-77216D01*
X-194069D02*
X-187298D01*
X-190684D01*
Y-63674D01*
X-194069D01*
X-173756Y-60288D02*
Y-63674D01*
X-177141D01*
X-170370D01*
X-173756D01*
Y-73830D01*
X-170370Y-77216D01*
X-160213D02*
X-150057D01*
X-146671Y-73830D01*
X-150057Y-70445D01*
X-156828D01*
X-160213Y-67059D01*
X-156828Y-63674D01*
X-146671D01*
X-139900D02*
X-136515D01*
Y-67059D01*
X-139900D01*
Y-63674D01*
Y-73830D02*
X-136515D01*
Y-77216D01*
X-139900D01*
Y-73830D01*
X-102659Y-77216D02*
Y-63674D01*
X-99273D01*
X-95888Y-67059D01*
Y-77216D01*
Y-67059D01*
X-92502Y-63674D01*
X-89116Y-67059D01*
Y-77216D01*
X-82345D02*
X-75574D01*
X-78960D01*
Y-63674D01*
X-82345D01*
X-65417Y-77216D02*
X-58646D01*
X-62032D01*
Y-56903D01*
X-65417D01*
X-48490Y-77216D02*
X-38333D01*
X-34947Y-73830D01*
X-38333Y-70445D01*
X-45104D01*
X-48490Y-67059D01*
X-45104Y-63674D01*
X-34947D01*
X-209724Y-91784D02*
X-213109Y-88399D01*
X-219880D01*
X-223266Y-91784D01*
Y-95170D01*
X-219880Y-98555D01*
X-213109D01*
X-209724Y-101941D01*
Y-105326D01*
X-213109Y-108712D01*
X-219880D01*
X-223266Y-105326D01*
X-189410Y-95170D02*
X-199567D01*
X-202953Y-98555D01*
Y-105326D01*
X-199567Y-108712D01*
X-189410D01*
X-179254Y-95170D02*
X-172482D01*
X-169097Y-98555D01*
Y-108712D01*
X-179254D01*
X-182639Y-105326D01*
X-179254Y-101941D01*
X-169097D01*
X-162326Y-108712D02*
X-155555D01*
X-158940D01*
Y-88399D01*
X-162326D01*
X-135241Y-108712D02*
X-142012D01*
X-145398Y-105326D01*
Y-98555D01*
X-142012Y-95170D01*
X-135241D01*
X-131856Y-98555D01*
Y-101941D01*
X-145398D01*
X-125084Y-95170D02*
X-121699D01*
Y-98555D01*
X-125084D01*
Y-95170D01*
Y-105326D02*
X-121699D01*
Y-108712D01*
X-125084D01*
Y-105326D01*
X-87843Y-108712D02*
X-81072D01*
X-84458D01*
Y-88399D01*
X-87843Y-91784D01*
X-70915Y-95170D02*
X-67530D01*
Y-98555D01*
X-70915D01*
Y-95170D01*
Y-105326D02*
X-67530D01*
Y-108712D01*
X-70915D01*
Y-105326D01*
X-53987Y-108712D02*
X-47216D01*
X-50602D01*
Y-88399D01*
X-53987Y-91784D01*
D87*
X482742Y660225D02*
Y636899D01*
X494405Y625236D01*
X506068Y636899D01*
Y660225D01*
X517731Y625236D02*
X529394D01*
X523562D01*
Y660225D01*
X517731Y654393D01*
X546888Y660225D02*
X558551D01*
X552719D01*
Y625236D01*
X546888D01*
X558551D01*
X576045D02*
X587708D01*
X581877D01*
Y660225D01*
X576045Y654393D01*
X141609Y624474D02*
X153272D01*
X159104Y630305D01*
Y641968D01*
X153272Y647800D01*
X141609D01*
X135778Y641968D01*
Y630305D01*
X141609Y624474D01*
X176598D02*
Y653631D01*
Y641968D01*
X170767D01*
X182430D01*
X176598D01*
Y653631D01*
X182430Y659463D01*
X258238Y624474D02*
X234913D01*
X258238Y647800D01*
Y653631D01*
X252407Y659463D01*
X240744D01*
X234913Y653631D01*
X269901D02*
X275733Y659463D01*
X287396D01*
X293227Y653631D01*
Y647800D01*
X287396Y641968D01*
X293227Y636137D01*
Y630305D01*
X287396Y624474D01*
X275733D01*
X269901Y630305D01*
Y636137D01*
X275733Y641968D01*
X269901Y647800D01*
Y653631D01*
X275733Y641968D02*
X287396D01*
X304890Y624474D02*
Y659463D01*
X322384D01*
X328216Y653631D01*
Y641968D01*
X322384Y636137D01*
X304890D01*
X339879Y659463D02*
X351542D01*
X345710D01*
Y624474D01*
X339879D01*
X351542D01*
X369036D02*
Y659463D01*
X392362Y624474D01*
Y659463D01*
X427351Y653631D02*
X421519Y659463D01*
X409856D01*
X404025Y653631D01*
Y647800D01*
X409856Y641968D01*
X421519D01*
X427351Y636137D01*
Y630305D01*
X421519Y624474D01*
X409856D01*
X404025Y630305D01*
X50942Y687953D02*
Y722942D01*
X62605Y711279D01*
X74268Y722942D01*
Y687953D01*
X103425D02*
X91762D01*
X85931Y693784D01*
Y705447D01*
X91762Y711279D01*
X103425D01*
X109256Y705447D01*
Y699616D01*
X85931D01*
X144245Y711279D02*
X126751D01*
X120919Y705447D01*
Y693784D01*
X126751Y687953D01*
X144245D01*
X155908Y722942D02*
Y687953D01*
Y705447D01*
X161740Y711279D01*
X173402D01*
X179234Y705447D01*
Y687953D01*
X196728Y711279D02*
X208391D01*
X214223Y705447D01*
Y687953D01*
X196728D01*
X190897Y693784D01*
X196728Y699616D01*
X214223D01*
X225886Y687953D02*
Y711279D01*
X243380D01*
X249211Y705447D01*
Y687953D01*
X260874D02*
X272537D01*
X266706D01*
Y711279D01*
X260874D01*
X313357D02*
X295863D01*
X290031Y705447D01*
Y693784D01*
X295863Y687953D01*
X313357D01*
X330852Y711279D02*
X342514D01*
X348346Y705447D01*
Y687953D01*
X330852D01*
X325020Y693784D01*
X330852Y699616D01*
X348346D01*
X360009Y687953D02*
X371672D01*
X365840D01*
Y722942D01*
X360009D01*
X424155D02*
Y687953D01*
X441649D01*
X447481Y693784D01*
Y717110D01*
X441649Y722942D01*
X424155D01*
X459143Y711279D02*
Y687953D01*
Y699616D01*
X464975Y705447D01*
X470806Y711279D01*
X476638D01*
X499964D02*
X511627D01*
X517458Y705447D01*
Y687953D01*
X499964D01*
X494132Y693784D01*
X499964Y699616D01*
X517458D01*
X529121Y711279D02*
Y693784D01*
X534952Y687953D01*
X540784Y693784D01*
X546615Y687953D01*
X552447Y693784D01*
Y711279D01*
X564110Y687953D02*
X575773D01*
X569941D01*
Y711279D01*
X564110D01*
X593267Y687953D02*
Y711279D01*
X610761D01*
X616593Y705447D01*
Y687953D01*
X639919Y676290D02*
X645750D01*
X651581Y682121D01*
Y711279D01*
X634087D01*
X628256Y705447D01*
Y693784D01*
X634087Y687953D01*
X651581D01*
D88*
X321062Y-59142D02*
X310905D01*
X321062Y-48985D01*
Y-46446D01*
X318523Y-43906D01*
X313444D01*
X310905Y-46446D01*
X326140Y-43906D02*
X336297D01*
Y-46446D01*
X326140Y-56602D01*
Y-59142D01*
X341375Y-46446D02*
X343914Y-43906D01*
X348993D01*
X351532Y-46446D01*
Y-56602D01*
X348993Y-59142D01*
X343914D01*
X341375Y-56602D01*
Y-46446D01*
X356610D02*
X359149Y-43906D01*
X364228D01*
X366767Y-46446D01*
Y-56602D01*
X364228Y-59142D01*
X359149D01*
X356610Y-56602D01*
Y-46446D01*
X-60858Y246131D02*
Y235975D01*
X-71015Y246131D01*
X-73554D01*
X-76094Y243592D01*
Y238514D01*
X-73554Y235975D01*
X-60858Y251210D02*
Y256288D01*
Y253749D01*
X-76094D01*
X-73554Y251210D01*
Y263906D02*
X-76094Y266445D01*
Y271523D01*
X-73554Y274062D01*
X-63398D01*
X-60858Y271523D01*
Y266445D01*
X-63398Y263906D01*
X-73554D01*
Y279141D02*
X-76094Y281680D01*
Y286758D01*
X-73554Y289297D01*
X-63398D01*
X-60858Y286758D01*
Y281680D01*
X-63398Y279141D01*
X-73554D01*
M02*
