G04*
G04 #@! TF.GenerationSoftware,Altium Limited,Altium Designer,22.1.2 (22)*
G04*
G04 Layer_Color=65535*
%FSLAX44Y44*%
%MOMM*%
G71*
G04*
G04 #@! TF.SameCoordinates,1F279A6F-825B-41A2-8EC7-F4161A23EE25*
G04*
G04*
G04 #@! TF.FilePolarity,Positive*
G04*
G01*
G75*
%ADD10C,0.2000*%
%ADD11C,0.5000*%
%ADD12C,0.4000*%
G36*
X466845Y402660D02*
X466944D01*
X467212Y402632D01*
X467508Y402590D01*
X467818Y402519D01*
X468156Y402435D01*
X468466Y402322D01*
X468480D01*
X468509Y402308D01*
X468551Y402280D01*
X468607Y402251D01*
X468748Y402181D01*
X468932Y402054D01*
X469143Y401913D01*
X469354Y401730D01*
X469552Y401518D01*
X469735Y401279D01*
Y401265D01*
X469749Y401250D01*
X469777Y401208D01*
X469805Y401166D01*
X469876Y401025D01*
X469961Y400842D01*
X470059Y400616D01*
X470130Y400348D01*
X470200Y400066D01*
X470228Y399756D01*
X468988Y399658D01*
Y399672D01*
Y399700D01*
X468974Y399742D01*
X468960Y399813D01*
X468917Y399968D01*
X468861Y400179D01*
X468776Y400405D01*
X468649Y400630D01*
X468494Y400842D01*
X468297Y401039D01*
X468269Y401053D01*
X468198Y401110D01*
X468058Y401194D01*
X467874Y401279D01*
X467635Y401363D01*
X467353Y401448D01*
X467000Y401504D01*
X466605Y401518D01*
X466408D01*
X466324Y401504D01*
X466211Y401490D01*
X465957Y401462D01*
X465675Y401405D01*
X465393Y401335D01*
X465125Y401222D01*
X465013Y401152D01*
X464900Y401081D01*
X464871Y401067D01*
X464815Y401011D01*
X464731Y400912D01*
X464646Y400799D01*
X464547Y400644D01*
X464463Y400475D01*
X464406Y400278D01*
X464378Y400052D01*
Y400024D01*
Y399968D01*
X464392Y399869D01*
X464420Y399756D01*
X464463Y399615D01*
X464533Y399474D01*
X464618Y399333D01*
X464745Y399192D01*
X464759Y399178D01*
X464829Y399136D01*
X464886Y399094D01*
X464942Y399065D01*
X465027Y399023D01*
X465125Y398967D01*
X465252Y398924D01*
X465393Y398868D01*
X465548Y398812D01*
X465732Y398741D01*
X465929Y398685D01*
X466154Y398614D01*
X466408Y398558D01*
X466690Y398488D01*
X466704D01*
X466760Y398473D01*
X466845Y398459D01*
X466944Y398431D01*
X467071Y398403D01*
X467226Y398361D01*
X467381Y398318D01*
X467550Y398276D01*
X467916Y398177D01*
X468269Y398079D01*
X468438Y398022D01*
X468593Y397966D01*
X468734Y397924D01*
X468847Y397867D01*
X468861D01*
X468889Y397853D01*
X468932Y397825D01*
X468988Y397797D01*
X469143Y397712D01*
X469326Y397599D01*
X469538Y397444D01*
X469749Y397275D01*
X469947Y397078D01*
X470116Y396866D01*
X470130Y396838D01*
X470186Y396768D01*
X470243Y396641D01*
X470327Y396472D01*
X470398Y396274D01*
X470468Y396035D01*
X470510Y395767D01*
X470524Y395485D01*
Y395471D01*
Y395457D01*
Y395414D01*
Y395358D01*
X470496Y395203D01*
X470468Y395005D01*
X470412Y394780D01*
X470341Y394540D01*
X470228Y394287D01*
X470073Y394019D01*
Y394005D01*
X470059Y393991D01*
X469989Y393906D01*
X469890Y393779D01*
X469749Y393638D01*
X469566Y393469D01*
X469340Y393286D01*
X469086Y393116D01*
X468791Y392961D01*
X468776D01*
X468748Y392947D01*
X468706Y392933D01*
X468649Y392905D01*
X468565Y392877D01*
X468466Y392835D01*
X468241Y392778D01*
X467973Y392708D01*
X467649Y392637D01*
X467296Y392595D01*
X466916Y392581D01*
X466690D01*
X466577Y392595D01*
X466450D01*
X466309Y392609D01*
X466140Y392623D01*
X465788Y392679D01*
X465421Y392736D01*
X465055Y392835D01*
X464702Y392961D01*
X464688D01*
X464660Y392976D01*
X464618Y393004D01*
X464561Y393032D01*
X464392Y393116D01*
X464195Y393243D01*
X463969Y393413D01*
X463730Y393610D01*
X463504Y393850D01*
X463293Y394117D01*
Y394132D01*
X463265Y394160D01*
X463250Y394202D01*
X463208Y394258D01*
X463180Y394329D01*
X463138Y394413D01*
X463039Y394625D01*
X462940Y394893D01*
X462856Y395189D01*
X462799Y395527D01*
X462771Y395880D01*
X463983Y395992D01*
Y395978D01*
Y395964D01*
X463997Y395922D01*
Y395865D01*
X464026Y395739D01*
X464068Y395555D01*
X464124Y395372D01*
X464181Y395161D01*
X464280Y394963D01*
X464378Y394780D01*
X464392Y394766D01*
X464435Y394710D01*
X464505Y394611D01*
X464618Y394512D01*
X464759Y394385D01*
X464914Y394258D01*
X465125Y394132D01*
X465351Y394019D01*
X465365D01*
X465379Y394005D01*
X465421Y393991D01*
X465464Y393976D01*
X465605Y393934D01*
X465788Y393878D01*
X466013Y393821D01*
X466267Y393779D01*
X466549Y393751D01*
X466859Y393737D01*
X466986D01*
X467127Y393751D01*
X467296Y393765D01*
X467494Y393793D01*
X467719Y393821D01*
X467945Y393878D01*
X468156Y393948D01*
X468184Y393962D01*
X468255Y393991D01*
X468354Y394047D01*
X468480Y394103D01*
X468607Y394202D01*
X468748Y394301D01*
X468889Y394413D01*
X469002Y394554D01*
X469016Y394568D01*
X469044Y394625D01*
X469086Y394695D01*
X469143Y394808D01*
X469199Y394921D01*
X469242Y395062D01*
X469270Y395217D01*
X469284Y395386D01*
Y395400D01*
Y395471D01*
X469270Y395555D01*
X469256Y395668D01*
X469213Y395781D01*
X469171Y395922D01*
X469101Y396063D01*
X469002Y396190D01*
X468988Y396204D01*
X468946Y396246D01*
X468889Y396302D01*
X468791Y396387D01*
X468678Y396472D01*
X468523Y396570D01*
X468339Y396669D01*
X468128Y396754D01*
X468114Y396768D01*
X468043Y396782D01*
X467931Y396824D01*
X467860Y396838D01*
X467761Y396866D01*
X467663Y396909D01*
X467536Y396937D01*
X467395Y396979D01*
X467226Y397021D01*
X467057Y397064D01*
X466859Y397120D01*
X466634Y397176D01*
X466394Y397233D01*
X466380D01*
X466338Y397247D01*
X466267Y397261D01*
X466183Y397289D01*
X466070Y397317D01*
X465943Y397346D01*
X465661Y397430D01*
X465351Y397529D01*
X465027Y397628D01*
X464745Y397726D01*
X464618Y397783D01*
X464505Y397839D01*
X464491D01*
X464477Y397853D01*
X464392Y397910D01*
X464265Y397980D01*
X464124Y398093D01*
X463955Y398220D01*
X463786Y398375D01*
X463617Y398558D01*
X463476Y398755D01*
X463462Y398783D01*
X463419Y398854D01*
X463363Y398967D01*
X463307Y399108D01*
X463250Y399291D01*
X463194Y399502D01*
X463152Y399728D01*
X463138Y399968D01*
Y399982D01*
Y399996D01*
Y400038D01*
Y400094D01*
X463166Y400235D01*
X463194Y400419D01*
X463236Y400630D01*
X463307Y400870D01*
X463405Y401110D01*
X463546Y401349D01*
Y401363D01*
X463560Y401377D01*
X463631Y401462D01*
X463730Y401575D01*
X463857Y401716D01*
X464026Y401871D01*
X464237Y402040D01*
X464491Y402195D01*
X464773Y402336D01*
X464787D01*
X464815Y402350D01*
X464857Y402364D01*
X464914Y402392D01*
X464984Y402421D01*
X465083Y402449D01*
X465294Y402505D01*
X465562Y402561D01*
X465872Y402618D01*
X466197Y402660D01*
X466563Y402674D01*
X466746D01*
X466845Y402660D01*
D02*
G37*
G36*
X417224Y396880D02*
Y392750D01*
X415927D01*
Y396880D01*
X412163Y402505D01*
X413728D01*
X415645Y399545D01*
Y399531D01*
X415673Y399502D01*
X415701Y399460D01*
X415729Y399404D01*
X415786Y399333D01*
X415842Y399249D01*
X415969Y399037D01*
X416124Y398783D01*
X416293Y398502D01*
X416477Y398205D01*
X416646Y397895D01*
Y397910D01*
X416660Y397938D01*
X416688Y397980D01*
X416730Y398036D01*
X416773Y398107D01*
X416829Y398191D01*
X416956Y398403D01*
X417111Y398657D01*
X417294Y398953D01*
X417506Y399277D01*
X417731Y399629D01*
X419606Y402505D01*
X421114D01*
X417224Y396880D01*
D02*
G37*
G36*
X498239Y392750D02*
X496999D01*
Y400912D01*
X494151Y392750D01*
X492995D01*
X490176Y401053D01*
Y392750D01*
X488935D01*
Y402505D01*
X490866D01*
X493178Y395583D01*
Y395569D01*
X493192Y395541D01*
X493206Y395499D01*
X493235Y395428D01*
X493291Y395259D01*
X493362Y395048D01*
X493432Y394808D01*
X493517Y394568D01*
X493587Y394343D01*
X493643Y394146D01*
X493658Y394174D01*
X493672Y394244D01*
X493714Y394371D01*
X493770Y394540D01*
X493841Y394766D01*
X493940Y395034D01*
X494038Y395344D01*
X494165Y395710D01*
X496505Y402505D01*
X498239D01*
Y392750D01*
D02*
G37*
G36*
X487934D02*
X486468D01*
X485326Y395710D01*
X481238D01*
X480181Y392750D01*
X478814D01*
X482535Y402505D01*
X483945D01*
X487934Y392750D01*
D02*
G37*
G36*
X473541Y393906D02*
X478348D01*
Y392750D01*
X472244D01*
Y402505D01*
X473541D01*
Y393906D01*
D02*
G37*
G36*
X460924Y392750D02*
X459627D01*
Y402505D01*
X460924D01*
Y392750D01*
D02*
G37*
G36*
X453946Y401349D02*
X448646D01*
Y398332D01*
X453227D01*
Y397176D01*
X448646D01*
Y392750D01*
X447349D01*
Y402505D01*
X453946D01*
Y401349D01*
D02*
G37*
G36*
X445009Y392750D02*
X443712D01*
Y402505D01*
X445009D01*
Y392750D01*
D02*
G37*
G36*
X442161Y401349D02*
X438947D01*
Y392750D01*
X437650D01*
Y401349D01*
X434436D01*
Y402505D01*
X442161D01*
Y401349D01*
D02*
G37*
G36*
X434126Y392750D02*
X432660D01*
X431518Y395710D01*
X427430D01*
X426373Y392750D01*
X425005D01*
X428727Y402505D01*
X430136D01*
X434126Y392750D01*
D02*
G37*
G36*
X407976Y402491D02*
X408089D01*
X408343Y402463D01*
X408624Y402435D01*
X408921Y402378D01*
X409217Y402308D01*
X409484Y402209D01*
X409498D01*
X409513Y402195D01*
X409597Y402153D01*
X409724Y402082D01*
X409865Y401983D01*
X410034Y401857D01*
X410218Y401702D01*
X410387Y401504D01*
X410542Y401293D01*
X410556Y401265D01*
X410598Y401180D01*
X410669Y401067D01*
X410739Y400898D01*
X410810Y400701D01*
X410880Y400489D01*
X410922Y400250D01*
X410936Y400010D01*
Y399982D01*
Y399911D01*
X410922Y399784D01*
X410894Y399629D01*
X410852Y399446D01*
X410781Y399249D01*
X410697Y399051D01*
X410584Y398840D01*
X410570Y398812D01*
X410528Y398755D01*
X410443Y398643D01*
X410330Y398530D01*
X410189Y398389D01*
X410020Y398234D01*
X409809Y398093D01*
X409569Y397952D01*
X409583D01*
X409611Y397938D01*
X409654Y397924D01*
X409710Y397895D01*
X409879Y397839D01*
X410076Y397740D01*
X410288Y397613D01*
X410528Y397458D01*
X410739Y397275D01*
X410936Y397050D01*
X410951Y397021D01*
X411007Y396937D01*
X411091Y396810D01*
X411176Y396641D01*
X411261Y396415D01*
X411345Y396176D01*
X411402Y395894D01*
X411416Y395583D01*
Y395569D01*
Y395555D01*
Y395471D01*
X411402Y395330D01*
X411373Y395161D01*
X411345Y394963D01*
X411289Y394752D01*
X411218Y394526D01*
X411120Y394301D01*
X411106Y394272D01*
X411063Y394202D01*
X411007Y394103D01*
X410922Y393962D01*
X410810Y393821D01*
X410697Y393666D01*
X410556Y393511D01*
X410401Y393384D01*
X410387Y393370D01*
X410330Y393328D01*
X410232Y393272D01*
X410105Y393215D01*
X409950Y393131D01*
X409766Y393046D01*
X409569Y392976D01*
X409329Y392905D01*
X409301D01*
X409217Y392877D01*
X409076Y392863D01*
X408892Y392835D01*
X408667Y392806D01*
X408399Y392778D01*
X408103Y392764D01*
X407765Y392750D01*
X404043D01*
Y402505D01*
X407877D01*
X407976Y402491D01*
D02*
G37*
%LPC*%
G36*
X483212Y401490D02*
Y401476D01*
X483198Y401448D01*
Y401391D01*
X483169Y401335D01*
X483155Y401236D01*
X483127Y401138D01*
X483071Y400898D01*
X483000Y400616D01*
X482902Y400306D01*
X482803Y399968D01*
X482676Y399615D01*
X481619Y396768D01*
X484917D01*
X483903Y399446D01*
Y399460D01*
X483888Y399502D01*
X483860Y399573D01*
X483832Y399658D01*
X483790Y399756D01*
X483747Y399883D01*
X483705Y400024D01*
X483649Y400165D01*
X483536Y400489D01*
X483423Y400828D01*
X483310Y401166D01*
X483212Y401490D01*
D02*
G37*
G36*
X429403D02*
Y401476D01*
X429389Y401448D01*
Y401391D01*
X429361Y401335D01*
X429347Y401236D01*
X429319Y401138D01*
X429263Y400898D01*
X429192Y400616D01*
X429093Y400306D01*
X428995Y399968D01*
X428868Y399615D01*
X427811Y396768D01*
X431109D01*
X430094Y399446D01*
Y399460D01*
X430080Y399502D01*
X430052Y399573D01*
X430024Y399658D01*
X429981Y399756D01*
X429939Y399883D01*
X429897Y400024D01*
X429841Y400165D01*
X429728Y400489D01*
X429615Y400828D01*
X429502Y401166D01*
X429403Y401490D01*
D02*
G37*
G36*
X407652Y401349D02*
X405340D01*
Y398417D01*
X407736D01*
X407920Y398431D01*
X408117Y398445D01*
X408314Y398459D01*
X408512Y398488D01*
X408667Y398516D01*
X408695Y398530D01*
X408751Y398544D01*
X408836Y398586D01*
X408949Y398643D01*
X409062Y398699D01*
X409188Y398783D01*
X409315Y398896D01*
X409414Y399009D01*
X409428Y399023D01*
X409456Y399065D01*
X409498Y399150D01*
X409541Y399249D01*
X409583Y399361D01*
X409625Y399502D01*
X409654Y399672D01*
X409668Y399855D01*
Y399883D01*
Y399939D01*
X409654Y400024D01*
X409640Y400137D01*
X409611Y400278D01*
X409569Y400419D01*
X409513Y400560D01*
X409428Y400701D01*
X409414Y400715D01*
X409386Y400757D01*
X409329Y400828D01*
X409259Y400898D01*
X409160Y400983D01*
X409047Y401067D01*
X408906Y401152D01*
X408751Y401208D01*
X408737D01*
X408667Y401236D01*
X408568Y401250D01*
X408413Y401279D01*
X408202Y401307D01*
X407962Y401321D01*
X407652Y401349D01*
D02*
G37*
G36*
X407906Y397261D02*
X405340D01*
Y393906D01*
X408117D01*
X408413Y393920D01*
X408540Y393934D01*
X408653Y393948D01*
X408667D01*
X408723Y393962D01*
X408808Y393976D01*
X408906Y394005D01*
X409146Y394089D01*
X409386Y394202D01*
X409400Y394216D01*
X409442Y394244D01*
X409498Y394287D01*
X409569Y394343D01*
X409640Y394427D01*
X409738Y394512D01*
X409809Y394625D01*
X409893Y394752D01*
X409907Y394766D01*
X409921Y394808D01*
X409950Y394893D01*
X409992Y394991D01*
X410034Y395104D01*
X410062Y395245D01*
X410076Y395414D01*
X410091Y395583D01*
Y395612D01*
Y395668D01*
X410076Y395781D01*
X410048Y395908D01*
X410020Y396049D01*
X409964Y396204D01*
X409893Y396359D01*
X409795Y396514D01*
X409781Y396528D01*
X409738Y396584D01*
X409682Y396655D01*
X409597Y396739D01*
X409484Y396838D01*
X409343Y396937D01*
X409188Y397021D01*
X409005Y397092D01*
X408977Y397106D01*
X408921Y397120D01*
X408794Y397148D01*
X408639Y397176D01*
X408441Y397205D01*
X408202Y397233D01*
X407906Y397261D01*
D02*
G37*
%LPD*%
D10*
X628300Y171450D02*
G03*
X628300Y158750I0J-6350D01*
G01*
X115478Y510402D02*
G03*
X185514Y491494I36922J-2402D01*
G01*
X106750Y40000D02*
Y70500D01*
X84250D02*
X106750D01*
X104250Y13000D02*
X106750Y15500D01*
X36750Y15500D02*
Y35500D01*
Y15500D02*
Y68000D01*
Y70500D01*
X59250D01*
X84250Y500D02*
X91750D01*
X96750Y5500D01*
X104250Y13000D01*
X54250Y500D02*
X59250D01*
X51750D02*
X54250D01*
X36750Y15500D02*
X51750Y500D01*
X619808Y242000D02*
Y255750D01*
X583808Y242000D02*
X619808D01*
X612000Y276500D02*
Y294500D01*
X621000Y255500D02*
X661000D01*
X621000Y315500D02*
X661000D01*
X672000Y276500D02*
Y294500D01*
X659080Y254010D02*
X660350D01*
X662890D01*
X643840D02*
X648920D01*
X161840Y358490D02*
X182160D01*
X161840D02*
Y391510D01*
X182160D01*
Y358490D02*
Y391510D01*
X265740Y395840D02*
X298760D01*
Y416160D01*
X265740D02*
X298760D01*
X265740Y395840D02*
Y416160D01*
X266490Y374090D02*
Y394410D01*
X299510D01*
Y374090D02*
Y394410D01*
X266490Y374090D02*
X299510D01*
X81840Y243490D02*
Y276510D01*
Y243490D02*
X102160D01*
Y276510D01*
X81840D02*
X102160D01*
X103510Y349840D02*
Y370160D01*
X70490Y349840D02*
X103510D01*
X70490D02*
Y370160D01*
X103510D01*
X85490Y201340D02*
X118510D01*
Y221660D01*
X85490D02*
X118510D01*
X85490Y201340D02*
Y221660D01*
X85990Y179590D02*
Y199910D01*
X119010D01*
Y179590D02*
Y199910D01*
X85990Y179590D02*
X119010D01*
X85490Y156340D02*
X118510D01*
Y176660D01*
X85490D02*
X118510D01*
X85490Y156340D02*
Y176660D01*
X206840Y260490D02*
X227160D01*
X206840D02*
Y293510D01*
X227160D01*
Y260490D02*
Y293510D01*
X623160Y456990D02*
Y490010D01*
X602840D02*
X623160D01*
X602840Y456990D02*
Y490010D01*
Y456990D02*
X623160D01*
X579840D02*
X600160D01*
X579840D02*
Y490010D01*
X600160D01*
Y456990D02*
Y490010D01*
X646160Y407490D02*
Y440510D01*
X625840D02*
X646160D01*
X625840Y407490D02*
Y440510D01*
Y407490D02*
X646160D01*
X382510Y90840D02*
Y111160D01*
X349490Y90840D02*
X382510D01*
X349490D02*
Y111160D01*
X382510D01*
X586990Y240160D02*
X620010D01*
X586990Y219840D02*
Y240160D01*
Y219840D02*
X620010D01*
Y240160D01*
X264510Y431090D02*
Y451410D01*
X231490Y431090D02*
X264510D01*
X231490D02*
Y451410D01*
X264510D01*
X375490Y241160D02*
X408510D01*
X375490Y220840D02*
Y241160D01*
Y220840D02*
X408510D01*
Y241160D01*
X617880Y346964D02*
Y367284D01*
X584860Y346964D02*
X617880D01*
X584860D02*
Y367284D01*
X617880D01*
X673160Y185990D02*
Y219010D01*
X652840D02*
X673160D01*
X652840Y185990D02*
Y219010D01*
Y185990D02*
X673160D01*
X22840Y286510D02*
X43160D01*
Y253490D02*
Y286510D01*
X22840Y253490D02*
X43160D01*
X22840D02*
Y286510D01*
X662890Y220990D02*
Y254010D01*
X648920D02*
X659080D01*
X643840Y220990D02*
Y254010D01*
Y220990D02*
X662890D01*
X259840Y39990D02*
X280160D01*
X259840D02*
Y73010D01*
X280160D01*
Y39990D02*
Y73010D01*
X249660Y172990D02*
Y206010D01*
X229340D02*
X249660D01*
X229340Y172990D02*
Y206010D01*
Y172990D02*
X249660D01*
X10490Y230840D02*
Y251160D01*
X43510D01*
Y230840D02*
Y251160D01*
X10490Y230840D02*
X43510D01*
X259490Y95160D02*
X292510D01*
X259490Y74840D02*
Y95160D01*
Y74840D02*
X292510D01*
Y95160D01*
X126490Y204840D02*
Y225160D01*
X159510D01*
Y204840D02*
Y225160D01*
X126490Y204840D02*
X159510D01*
X323840Y58990D02*
Y92010D01*
Y58990D02*
X344160D01*
Y92010D01*
X323840D02*
X344160D01*
X323840Y73010D02*
X344160D01*
Y39990D02*
Y73010D01*
X323840Y39990D02*
X344160D01*
X323840D02*
Y73010D01*
X621840Y220990D02*
Y254010D01*
Y220990D02*
X642160D01*
Y254010D01*
X621840D02*
X642160D01*
X20000Y254000D02*
Y290000D01*
X6000Y254000D02*
X20000D01*
X6000D02*
Y290000D01*
X216000Y16000D02*
X234000D01*
X255000Y25000D02*
Y65000D01*
X195000Y25000D02*
Y65000D01*
X216000Y76000D02*
X234000D01*
X105600Y75300D02*
Y88000D01*
Y100700D01*
X181800Y75300D02*
Y81650D01*
Y94350D02*
Y100700D01*
Y81650D02*
Y94350D01*
X105600Y100700D02*
X181800D01*
X105600Y75300D02*
X181800D01*
X133300Y357100D02*
X139650D01*
X152350D02*
X158700D01*
X139650D02*
X152350D01*
X143460Y458700D02*
X158700D01*
Y357100D02*
Y458700D01*
X133300Y357100D02*
Y458700D01*
X143460D01*
X12700Y303900D02*
X64770D01*
X12700Y354700D02*
X64770D01*
Y322950D02*
Y335650D01*
X12700Y316600D02*
Y342000D01*
X64770D02*
Y354700D01*
Y303900D02*
Y316600D01*
Y335650D02*
Y342000D01*
Y316600D02*
Y322950D01*
X12700Y342000D02*
Y354700D01*
Y303900D02*
Y316600D01*
X649300Y405500D02*
Y481700D01*
X674700Y405500D02*
Y481700D01*
X655650Y405500D02*
X668350D01*
X674700D01*
X649300D02*
X655650D01*
X662000Y481700D02*
X674700D01*
X649300D02*
X662000D01*
X-27630Y142000D02*
Y233000D01*
X-37630D02*
X-27630D01*
X-38630Y142000D02*
X-27630D01*
X-32630Y186000D02*
X-28630Y190000D01*
X-32630Y194000D02*
X-28630Y190000D01*
X-38630D02*
X-28630D01*
X-27630Y161000D02*
X-22630D01*
X-27630Y218000D02*
X-23630D01*
X-5880Y149000D02*
Y221000D01*
Y226750D01*
X37370Y167000D02*
Y170000D01*
Y205000D02*
Y209000D01*
X20370Y227000D02*
X23370D01*
X21000Y148750D02*
X24000D01*
X-18630Y227000D02*
X-2630D01*
X-18630Y149000D02*
Y227000D01*
Y149000D02*
X-2630D01*
X-12630Y224000D02*
Y226000D01*
Y149000D02*
Y226000D01*
X87630Y373380D02*
Y424180D01*
X11430D02*
X87630D01*
X11430Y373380D02*
X87630D01*
X11430D02*
Y424180D01*
X10840Y458780D02*
X31160D01*
Y423220D02*
Y458780D01*
X10840Y423220D02*
Y458780D01*
Y423220D02*
X31160D01*
X87630Y459740D02*
Y510540D01*
X11430D02*
X87630D01*
X11430Y459740D02*
X87630D01*
X11430D02*
Y510540D01*
X431800Y508000D02*
Y520700D01*
X172720D02*
X431800D01*
X172720Y495300D02*
Y520700D01*
Y495300D02*
X431800D01*
Y508000D01*
X650240D02*
Y520700D01*
X441960D02*
X650240D01*
X441960Y495300D02*
X650240D01*
Y508000D01*
X441960Y514350D02*
Y520700D01*
Y495300D02*
Y501650D01*
Y514350D01*
X264160Y12700D02*
Y25400D01*
Y12700D02*
X472440D01*
X264160Y38100D02*
X472440D01*
X264160Y25400D02*
Y38100D01*
X472440Y12700D02*
Y19050D01*
Y31750D02*
Y38100D01*
Y19050D02*
Y31750D01*
X650240Y12700D02*
Y19050D01*
Y31750D02*
Y38100D01*
Y19050D02*
Y31750D01*
X492760Y12700D02*
Y25400D01*
Y12700D02*
X650240D01*
X492760Y38100D02*
X650240D01*
X492760Y25400D02*
Y38100D01*
X671000Y152000D02*
Y170000D01*
X639000Y152000D02*
Y170000D01*
X651000Y152000D02*
X659000D01*
X210500Y169500D02*
X228500D01*
X210500Y137500D02*
X228500D01*
Y149500D02*
Y157500D01*
X465000Y267000D02*
Y305000D01*
X383000Y267000D02*
X465000D01*
X383000Y305000D02*
X465000D01*
X383000Y267000D02*
Y305000D01*
X230000Y257000D02*
X268000D01*
X230000D02*
Y339000D01*
X268000Y257000D02*
Y339000D01*
X230000D02*
X268000D01*
X60620Y201030D02*
Y228970D01*
X45380Y201030D02*
X60620D01*
X45380D02*
Y228970D01*
X60620D01*
X45380Y170530D02*
Y198470D01*
X60620D01*
Y170530D02*
Y198470D01*
X45380Y170530D02*
X60620D01*
X255500Y217100D02*
X627500Y217100D01*
X255500Y113100D02*
Y217100D01*
Y113100D02*
X626500Y113100D01*
X628300Y171450D02*
Y217100D01*
Y113100D02*
Y158750D01*
X189000Y265000D02*
X190000Y266000D01*
X119000Y265000D02*
X121000D01*
X119000D02*
Y266000D01*
Y333000D02*
Y335000D01*
X120000D01*
X189000Y333000D02*
Y335000D01*
X188000D02*
X189000D01*
X131000Y126000D02*
Y164000D01*
X144000D01*
X186000D02*
X199000D01*
Y126000D02*
Y164000D01*
X196000Y126000D02*
X199000D01*
X131000D02*
X134000D01*
X176000Y455000D02*
X194000D01*
X176000Y423000D02*
X194000D01*
Y435000D02*
Y443000D01*
X47500Y243500D02*
Y261500D01*
X79500Y243500D02*
Y261500D01*
X59500D02*
X67500D01*
X232220Y395380D02*
X234760D01*
X232220Y410620D02*
X234760D01*
X232220Y395380D02*
Y410620D01*
X265240Y395380D02*
Y410620D01*
X234760D02*
X265240D01*
X234760Y395380D02*
Y410620D01*
Y395380D02*
X265240D01*
X231220Y377380D02*
X233760D01*
X231220Y392620D02*
X233760D01*
X231220Y377380D02*
Y392620D01*
X264240Y377380D02*
Y392620D01*
X233760D02*
X264240D01*
X233760Y377380D02*
Y392620D01*
Y377380D02*
X264240D01*
X186840Y177220D02*
X207160D01*
X186840D02*
Y212780D01*
X207160Y177220D02*
Y212780D01*
X186840D02*
X207160D01*
X484280Y45840D02*
Y66160D01*
X448720Y45840D02*
X484280D01*
X448720Y66160D02*
X484280D01*
X448720Y45840D02*
Y66160D01*
X425840Y86280D02*
X446160D01*
Y50720D02*
Y86280D01*
X425840Y50720D02*
Y86280D01*
Y50720D02*
X446160D01*
X1000Y46000D02*
Y104000D01*
X33000D01*
Y46000D02*
Y104000D01*
X1000Y46000D02*
X33000D01*
X188340Y250780D02*
X208660D01*
Y215220D02*
Y250780D01*
X188340Y215220D02*
Y250780D01*
Y215220D02*
X208660D01*
X205840Y331280D02*
X226160D01*
Y295720D02*
Y331280D01*
X205840Y295720D02*
Y331280D01*
Y295720D02*
X226160D01*
X166090Y212720D02*
X186410D01*
X166090D02*
Y248280D01*
X186410Y212720D02*
Y248280D01*
X166090D02*
X186410D01*
X121720Y227090D02*
Y247410D01*
X157280D01*
X121720Y227090D02*
X157280D01*
Y247410D01*
X231220Y341840D02*
Y362160D01*
X266780D01*
X231220Y341840D02*
X266780D01*
Y362160D01*
X232720Y233840D02*
Y254160D01*
X268280D01*
X232720Y233840D02*
X268280D01*
Y254160D01*
X625840Y444220D02*
X646160D01*
X625840D02*
Y479780D01*
X646160Y444220D02*
Y479780D01*
X625840D02*
X646160D01*
X109840Y104220D02*
X130160D01*
X109840D02*
Y139780D01*
X130160Y104220D02*
Y139780D01*
X109840D02*
X130160D01*
X200840Y102220D02*
X221160D01*
X200840D02*
Y137780D01*
X221160Y102220D02*
Y137780D01*
X200840D02*
X221160D01*
X374220Y40840D02*
Y61160D01*
X409780D01*
X374220Y40840D02*
X409780D01*
Y61160D01*
X296840Y41220D02*
X317160D01*
X296840D02*
Y76780D01*
X317160Y41220D02*
Y76780D01*
X296840D02*
X317160D01*
X346840Y40220D02*
X367160D01*
X346840D02*
Y75780D01*
X367160Y40220D02*
Y75780D01*
X346840D02*
X367160D01*
X48780Y514840D02*
Y535160D01*
X13220Y514840D02*
X48780D01*
X13220Y535160D02*
X48780D01*
X13220Y514840D02*
Y535160D01*
X483780Y68840D02*
Y89160D01*
X448220Y68840D02*
X483780D01*
X448220Y89160D02*
X483780D01*
X448220Y68840D02*
Y89160D01*
X448280Y219840D02*
Y240160D01*
X412720Y219840D02*
X448280D01*
X412720Y240160D02*
X448280D01*
X412720Y219840D02*
Y240160D01*
X268780Y472840D02*
Y493160D01*
X233220Y472840D02*
X268780D01*
X233220Y493160D02*
X268780D01*
X233220Y472840D02*
Y493160D01*
X422280Y66840D02*
Y87160D01*
X386720Y66840D02*
X422280D01*
X386720Y87160D02*
X422280D01*
X386720Y66840D02*
Y87160D01*
X384720Y90840D02*
Y111160D01*
X420280D01*
X384720Y90840D02*
X420280D01*
Y111160D01*
X423720Y89840D02*
Y110160D01*
X459280D01*
X423720Y89840D02*
X459280D01*
Y110160D01*
X408530Y243590D02*
Y263910D01*
X372970Y243590D02*
X408530D01*
X372970Y263910D02*
X408530D01*
X372970Y243590D02*
Y263910D01*
X206840Y423470D02*
X227160D01*
X206840D02*
Y459030D01*
X227160Y423470D02*
Y459030D01*
X206840D02*
X227160D01*
X413220Y242840D02*
Y263160D01*
X448780D01*
X413220Y242840D02*
X448780D01*
Y263160D01*
X636220Y118840D02*
Y139160D01*
X671780D01*
X636220Y118840D02*
X671780D01*
Y139160D01*
X208590Y174720D02*
X228910D01*
X208590D02*
Y210280D01*
X228910Y174720D02*
Y210280D01*
X208590D02*
X228910D01*
X45220Y273840D02*
Y294160D01*
X80780D01*
X45220Y273840D02*
X80780D01*
Y294160D01*
X83220Y222840D02*
Y243160D01*
X118780D01*
X83220Y222840D02*
X118780D01*
Y243160D01*
X629840Y218280D02*
X650160D01*
Y182720D02*
Y218280D01*
X629840Y182720D02*
Y218280D01*
Y182720D02*
X650160D01*
X223840Y102720D02*
X244160D01*
X223840D02*
Y138280D01*
X244160Y102720D02*
Y138280D01*
X223840D02*
X244160D01*
X582676Y323850D02*
Y344170D01*
X618236D01*
X582676Y323850D02*
X618236D01*
Y344170D01*
X587376Y370586D02*
X617856D01*
X587376D02*
Y385826D01*
X617856D01*
Y370586D02*
Y385826D01*
X584836Y370586D02*
Y385826D01*
X587376D01*
X584836Y370586D02*
X587376D01*
X232220Y413380D02*
X234760D01*
X232220Y428620D02*
X234760D01*
X232220Y413380D02*
Y428620D01*
X265240Y413380D02*
Y428620D01*
X234760D02*
X265240D01*
X234760Y413380D02*
Y428620D01*
Y413380D02*
X265240D01*
X37000Y90500D02*
X52000Y75500D01*
X54500D01*
X59500D01*
X104500Y88000D02*
X107000Y90500D01*
Y145500D01*
X97000Y80500D02*
X104500Y88000D01*
X92000Y75500D02*
X97000Y80500D01*
X84500Y75500D02*
X92000D01*
X84500Y145500D02*
X107000D01*
X37000D02*
X59500D01*
X37000Y143000D02*
Y145500D01*
Y90500D02*
Y143000D01*
Y90500D02*
Y110500D01*
X210590Y251280D02*
X230910D01*
Y215720D02*
Y251280D01*
X210590Y215720D02*
Y251280D01*
Y215720D02*
X230910D01*
X100500Y74250D02*
X102616D01*
X101558D01*
Y80598D01*
X100500Y79540D01*
X396165Y410000D02*
X389500D01*
X396165Y416665D01*
Y418331D01*
X394498Y419997D01*
X391166D01*
X389500Y418331D01*
X399497D02*
X401163Y419997D01*
X404495D01*
X406161Y418331D01*
Y416665D01*
X404495Y414998D01*
X406161Y413332D01*
Y411666D01*
X404495Y410000D01*
X401163D01*
X399497Y411666D01*
Y413332D01*
X401163Y414998D01*
X399497Y416665D01*
Y418331D01*
X401163Y414998D02*
X404495D01*
X419490Y410000D02*
Y419997D01*
X424489D01*
X426155Y418331D01*
Y414998D01*
X424489Y413332D01*
X419490D01*
X429487Y419997D02*
X432819D01*
X431153D01*
Y410000D01*
X429487D01*
X432819D01*
X437818D02*
Y419997D01*
X444482Y410000D01*
Y419997D01*
X454479Y418331D02*
X452813Y419997D01*
X449481D01*
X447814Y418331D01*
Y416665D01*
X449481Y414998D01*
X452813D01*
X454479Y413332D01*
Y411666D01*
X452813Y410000D01*
X449481D01*
X447814Y411666D01*
X467808Y410000D02*
Y419997D01*
X472807D01*
X474473Y418331D01*
Y414998D01*
X472807Y413332D01*
X467808D01*
X477805Y410000D02*
Y419997D01*
X482803D01*
X484469Y418331D01*
Y414998D01*
X482803Y413332D01*
X477805D01*
X481137D02*
X484469Y410000D01*
X492800Y419997D02*
X489468D01*
X487802Y418331D01*
Y411666D01*
X489468Y410000D01*
X492800D01*
X494466Y411666D01*
Y418331D01*
X492800Y419997D01*
X504463D02*
X501131D01*
X502797D01*
Y411666D01*
X501131Y410000D01*
X499465D01*
X497798Y411666D01*
X514460Y419997D02*
X507795D01*
Y410000D01*
X514460D01*
X507795Y414998D02*
X511128D01*
X524456Y418331D02*
X522790Y419997D01*
X519458D01*
X517792Y418331D01*
Y411666D01*
X519458Y410000D01*
X522790D01*
X524456Y411666D01*
X527789Y419997D02*
X534453D01*
X531121D01*
Y410000D01*
X221750Y420247D02*
Y411916D01*
X223416Y410250D01*
X226748D01*
X228414Y411916D01*
Y420247D01*
X221500Y404997D02*
X228165D01*
X224832D01*
Y395000D01*
X220750Y378000D02*
Y387997D01*
X225748D01*
X227414Y386331D01*
Y382998D01*
X225748Y381332D01*
X220750D01*
X224082D02*
X227414Y378000D01*
X538250Y99915D02*
Y93250D01*
X531586Y99915D01*
X529919D01*
X528253Y98248D01*
Y94916D01*
X529919Y93250D01*
X528253Y109911D02*
Y103247D01*
X533252D01*
X531586Y106579D01*
Y108245D01*
X533252Y109911D01*
X536584D01*
X538250Y108245D01*
Y104913D01*
X536584Y103247D01*
X308000Y95000D02*
Y98332D01*
Y96666D01*
X298003D01*
X299669Y95000D01*
X298003Y109995D02*
X299669Y106663D01*
X303002Y103331D01*
X306334D01*
X308000Y104997D01*
Y108329D01*
X306334Y109995D01*
X304668D01*
X303002Y108329D01*
Y103331D01*
X283500Y220500D02*
Y223832D01*
Y222166D01*
X273503D01*
X275169Y220500D01*
X283500Y233829D02*
X273503D01*
X278502Y228831D01*
Y235495D01*
X370500Y221750D02*
Y225082D01*
Y223416D01*
X360503D01*
X362169Y221750D01*
Y230081D02*
X360503Y231747D01*
Y235079D01*
X362169Y236745D01*
X368834D01*
X370500Y235079D01*
Y231747D01*
X368834Y230081D01*
X362169D01*
X503503Y227164D02*
Y220500D01*
X508502D01*
X506836Y223832D01*
Y225498D01*
X508502Y227164D01*
X511834D01*
X513500Y225498D01*
Y222166D01*
X511834Y220500D01*
X7248Y311500D02*
Y321497D01*
X2250Y316498D01*
X8914D01*
X2500Y347331D02*
X4166Y348997D01*
X7498D01*
X9165Y347331D01*
Y345664D01*
X7498Y343998D01*
X5832D01*
X7498D01*
X9165Y342332D01*
Y340666D01*
X7498Y339000D01*
X4166D01*
X2500Y340666D01*
X77165Y309500D02*
X70500D01*
X77165Y316164D01*
Y317831D01*
X75498Y319497D01*
X72166D01*
X70500Y317831D01*
X38750Y438497D02*
X42082D01*
X40416D01*
Y428500D01*
X38750D01*
X42082D01*
X53745Y436831D02*
X52079Y438497D01*
X48747D01*
X47081Y436831D01*
Y430166D01*
X48747Y428500D01*
X52079D01*
X53745Y430166D01*
X63742Y436831D02*
X62076Y438497D01*
X58744D01*
X57077Y436831D01*
Y435164D01*
X58744Y433498D01*
X62076D01*
X63742Y431832D01*
Y430166D01*
X62076Y428500D01*
X58744D01*
X57077Y430166D01*
X67074Y428500D02*
Y438497D01*
X72073D01*
X73739Y436831D01*
Y433498D01*
X72073Y431832D01*
X67074D01*
X77071Y428500D02*
X80403D01*
X78737D01*
Y438497D01*
X77071Y436831D01*
X52750Y525247D02*
X56082D01*
X54416D01*
Y515250D01*
X52750D01*
X56082D01*
X67745Y523581D02*
X66079Y525247D01*
X62747D01*
X61081Y523581D01*
Y516916D01*
X62747Y515250D01*
X66079D01*
X67745Y516916D01*
X77742Y523581D02*
X76076Y525247D01*
X72744D01*
X71077Y523581D01*
Y521914D01*
X72744Y520248D01*
X76076D01*
X77742Y518582D01*
Y516916D01*
X76076Y515250D01*
X72744D01*
X71077Y516916D01*
X81074Y515250D02*
Y525247D01*
X86073D01*
X87739Y523581D01*
Y520248D01*
X86073Y518582D01*
X81074D01*
X182863Y39750D02*
X190269D01*
X191750Y41231D01*
Y44194D01*
X190269Y45675D01*
X182863D01*
X184344Y54562D02*
X182863Y53081D01*
Y50118D01*
X184344Y48637D01*
X185825D01*
X187306Y50118D01*
Y53081D01*
X188788Y54562D01*
X190269D01*
X191750Y53081D01*
Y50118D01*
X190269Y48637D01*
X182863Y63449D02*
Y57524D01*
X191750D01*
Y63449D01*
X187306Y57524D02*
Y60487D01*
X191750Y66411D02*
X182863D01*
Y70855D01*
X184344Y72336D01*
X187306D01*
X188788Y70855D01*
Y66411D01*
Y69374D02*
X191750Y72336D01*
X595000Y260000D02*
X585003D01*
Y264998D01*
X586669Y266665D01*
X590002D01*
X591668Y264998D01*
Y260000D01*
Y263332D02*
X595000Y266665D01*
X585003Y276661D02*
Y269997D01*
X595000D01*
Y276661D01*
X590002Y269997D02*
Y273329D01*
X586669Y286658D02*
X585003Y284992D01*
Y281660D01*
X586669Y279993D01*
X588335D01*
X590002Y281660D01*
Y284992D01*
X591668Y286658D01*
X593334D01*
X595000Y284992D01*
Y281660D01*
X593334Y279993D01*
X585003Y296655D02*
Y289990D01*
X595000D01*
Y296655D01*
X590002Y289990D02*
Y293323D01*
X585003Y299987D02*
Y306652D01*
Y303319D01*
X595000D01*
X125140Y442920D02*
X128472D01*
X126806D01*
Y452917D01*
X125140Y451251D01*
X71250Y334000D02*
X74582D01*
X72916D01*
Y343997D01*
X71250Y342331D01*
X678148Y478250D02*
X681480D01*
X679814D01*
Y488247D01*
X678148Y486581D01*
X4750Y376750D02*
X8082D01*
X6416D01*
Y386747D01*
X4750Y385081D01*
X3500Y463000D02*
X6832D01*
X5166D01*
Y472997D01*
X3500Y471331D01*
X418500Y527000D02*
Y530332D01*
Y528666D01*
X408503D01*
X410169Y527000D01*
X639000Y526250D02*
Y529582D01*
Y527916D01*
X629003D01*
X630669Y526250D01*
X282480Y4540D02*
Y7872D01*
Y6206D01*
X272483D01*
X274149Y4540D01*
X511080D02*
Y7872D01*
Y6206D01*
X501083D01*
X502749Y4540D01*
X117825Y72194D02*
X114863D01*
X116344D01*
Y64788D01*
X114863Y63306D01*
X113382D01*
X111901Y64788D01*
X120788Y63306D02*
Y72194D01*
X125231D01*
X126712Y70712D01*
Y67750D01*
X125231Y66269D01*
X120788D01*
X134118Y63306D02*
Y72194D01*
X129675Y67750D01*
X135599D01*
X110085Y385248D02*
X106753D01*
X108419D01*
Y376918D01*
X106753Y375252D01*
X105087D01*
X103421Y376918D01*
X113418Y375252D02*
Y385248D01*
X118416D01*
X120082Y383582D01*
Y380250D01*
X118416Y378584D01*
X113418D01*
X123414Y383582D02*
X125081Y385248D01*
X128413D01*
X130079Y383582D01*
Y381916D01*
X128413Y380250D01*
X126747D01*
X128413D01*
X130079Y378584D01*
Y376918D01*
X128413Y375252D01*
X125081D01*
X123414Y376918D01*
X15586Y367998D02*
X12253D01*
X13919D01*
Y359668D01*
X12253Y358002D01*
X10587D01*
X8921Y359668D01*
X18918Y358002D02*
Y367998D01*
X23916D01*
X25582Y366332D01*
Y363000D01*
X23916Y361334D01*
X18918D01*
X35579Y358002D02*
X28914D01*
X35579Y364666D01*
Y366332D01*
X33913Y367998D01*
X30581D01*
X28914Y366332D01*
X656752Y494998D02*
X653419D01*
X655086D01*
Y486668D01*
X653419Y485002D01*
X651753D01*
X650087Y486668D01*
X660084Y485002D02*
Y494998D01*
X665082D01*
X666748Y493332D01*
Y490000D01*
X665082Y488334D01*
X660084D01*
X670081Y485002D02*
X673413D01*
X671747D01*
Y494998D01*
X670081Y493332D01*
X55084Y166248D02*
X51752D01*
X53418D01*
Y157918D01*
X51752Y156252D01*
X50086D01*
X48419Y157918D01*
X58416Y166248D02*
X65081D01*
Y164582D01*
X58416Y157918D01*
Y156252D01*
X99834Y409498D02*
X96502D01*
X98168D01*
Y401168D01*
X96502Y399502D01*
X94836D01*
X93169Y401168D01*
X109831Y409498D02*
X106498Y407832D01*
X103166Y404500D01*
Y401168D01*
X104832Y399502D01*
X108165D01*
X109831Y401168D01*
Y402834D01*
X108165Y404500D01*
X103166D01*
X99584Y496498D02*
X96252D01*
X97918D01*
Y488168D01*
X96252Y486502D01*
X94586D01*
X92919Y488168D01*
X109581Y496498D02*
X102916D01*
Y491500D01*
X106248Y493166D01*
X107914D01*
X109581Y491500D01*
Y488168D01*
X107914Y486502D01*
X104582D01*
X102916Y488168D01*
X335334Y489998D02*
X332002D01*
X333668D01*
Y481668D01*
X332002Y480002D01*
X330336D01*
X328669Y481668D01*
X343665Y480002D02*
Y489998D01*
X338666Y485000D01*
X345331D01*
X514834Y487498D02*
X511502D01*
X513168D01*
Y479168D01*
X511502Y477502D01*
X509836D01*
X508169Y479168D01*
X518166Y485832D02*
X519832Y487498D01*
X523164D01*
X524831Y485832D01*
Y484166D01*
X523164Y482500D01*
X521498D01*
X523164D01*
X524831Y480834D01*
Y479168D01*
X523164Y477502D01*
X519832D01*
X518166Y479168D01*
X575084Y54498D02*
X571752D01*
X573418D01*
Y46168D01*
X571752Y44502D01*
X570085D01*
X568419Y46168D01*
X585081Y44502D02*
X578416D01*
X585081Y51166D01*
Y52832D01*
X583414Y54498D01*
X580082D01*
X578416Y52832D01*
X447250Y9498D02*
X443918D01*
X445584D01*
Y1168D01*
X443918Y-498D01*
X442252D01*
X440586Y1168D01*
X450582Y-498D02*
X453914D01*
X452248D01*
Y9498D01*
X450582Y7832D01*
D11*
X199100Y265000D02*
G03*
X199100Y265000I-100J0D01*
G01*
D12*
X582808Y247000D02*
Y251000D01*
X11000Y291000D02*
X15000D01*
M02*
