M48
;Layer_Color=9474304
;FILE_FORMAT=4:4
METRIC,LZ
;TYPE=PLATED
T1F00S00C0.3000
T3F00S00C1.0000
T4F00S00C1.1000
T5F00S00C1.5000
T6F00S00C3.2000
;TYPE=NON_PLATED
T7F00S00C3.2000
%
T01
X0031925Y000615
X00321Y00068
X00368Y000675
X00383Y00077
X00399Y00063
X004095Y00061
X00418Y00062
X00436Y0004825
X00456647Y00047228
X0046575Y0008825
X004672Y0010855
X00451Y001125
X004552Y0015255
X00421Y0021525
X00461Y00253
X0036475
X00393Y0011475
X0059Y0017
X00631Y0017425
X0062525Y00191
X0066525Y0018075
X0067725Y00129
X00615Y00078
Y00066
X00307Y0008225
X00289397Y00063728
X002975Y00146
X002905Y00165
X00270891Y00189947
X00239Y0022
X002305Y002115
X0020175Y002075
X001985Y0021481
X00176819Y00212317
X0017225Y0020575
X0016125Y0019975
X00168Y00192
X00145Y00177
Y00171
Y00163
X00125Y00166
X0012225Y001885
X0012075Y002115
X00149Y002265
X0015Y0027175
X001015Y002725
X0008225Y00284
X0008175Y00239
X0006425Y002225
X000425Y0020575
X00073Y00177
X00104Y00138
X00113
X00107Y00129
X0008475Y00109
Y001025
X00165Y00129
X00177Y0013
X00211Y001385
X0022075Y0025425
X002695Y002535
X0030575Y0023475
X00184Y00288
X001105Y0024675
X0004475Y00275
X00013Y0027275
X00094Y0032
X00086Y0034675
X000895Y00378
X00117Y00405
X00113279Y00411041
X00113Y00422
X00066Y00444
X0007Y00524
X0022825Y0048025
X002295Y0043775
X0019775Y00439
X0018575Y0041525
X00184Y0039275
X0021525Y00395
X00216Y0033625
X0027425Y00352
X003025Y00384
X00284Y00427
X00273Y00428
X002915Y004865
X003615Y00484
Y00491
X0037Y0049125
X0037175Y004845
X003705Y00417
Y00411
X0036Y0041075
X0036025Y0041675
X00523Y00433
X00560007Y0043325
X0055325Y004455
X0056775Y004165
X00565Y00403
Y00396
X0056475Y00389
X00612Y0045225
T03
X006095Y00263
Y00308
X006745
Y00263
X002475Y000785
X002025
Y000135
X002475
T04
X003302Y000254
X003556
X00381
X004064
X004318
X004572
X00508
X005334
X005588
X005842
X006096
X00635
X006096Y00127
X005822
X005568
X005314
X00506
X004806
X004552
X004298
X004044
X00379
X003536
X003282
Y002032
X003536
X00379
X004044
X004298
X004552
X004806
X00506
X005314
X005568
X005822
X006096
X003028
X002774
Y00127
X003028
X003048Y000254
X002794
X001691Y00088
X001437
X001183
X000508Y003166
Y00342
X000254
Y003166
Y0038608
X000508
X000762
Y0041148
X000508
X000254
Y0047244
X000508
X000762
Y0049784
X000508
X000254
X00146Y00446
Y004206
Y003952
Y003698
X0018796Y00508
X0021336
X0023876
X0026416
X0028956
X0031496
X0034036
X0036576
X0039116
X0041656
X004572
X004826
X00508
X005334
X005588
X005842
X006096
X00635
X00662Y00469
Y004436
Y004182
T05
X00014Y00023
X0001475Y001275
T06
X0066Y00078
X0014478Y000254
X006604Y003556
T07
X001524Y00508
M30
